<?xml version="1.0" encoding="UTF-8"?>
<svg width="200px" height="200px" viewBox="0 0 200 200" version="1.1" xmlns="http://www.w3.org/2000/svg" xmlns:xlink="http://www.w3.org/1999/xlink" style="background: #ED1414;">
    <!-- Generator: Sketch 49.1 (51147) - http://www.bohemiancoding.com/sketch -->
    <title>boogers</title>
    <desc>Created with Sketch.</desc>
    <defs>
        <path d="M115,153 C143.718807,153 169.125,149.642136 169.125,145.5 C169.125,141.357864 143.718807,138 115,138 C86.281193,138 63,141.357864 63,145.5 C63,149.642136 86.281193,153 115,153 Z" id="path-1"></path>
        <ellipse id="path-2" cx="105" cy="22.5" rx="24" ry="6.5"></ellipse>
        <ellipse id="path-3" cx="106" cy="23.5" rx="5" ry="4.5"></ellipse>
    </defs>
    <g id="boogers" stroke="none" stroke-width="1" fill="none" fill-rule="evenodd">
        <path d="M139.128906,2.515625 C122.623865,5.39229977 131.574072,2.86956125 106.404297,21.5058594 C84.3040422,37.8694117 33.4207568,93.6695506 41.8886719,125.197266 C44.0544341,133.260825 60.4466683,144.372408 64.1611328,146.503906 C70.8476695,150.34089 90.8466303,151.586727 96.2216797,151.831055 C110.432917,152.47704 124.929028,152.691304 139.128906,151.831055 C146.63709,151.376198 155.874073,150.63551 163.038086,148.342773 C167.850996,146.802473 169.857979,144.684025 173.914062,141.669922 C207.794819,116.492901 170.939896,79.4135604 140.710938,76.8007812 C125.76003,75.5085297 113.729174,79.5362411 112.34375,95.3300781" id="Path-25" stroke="#060605" stroke-width="2" stroke-linecap="round"></path>
        <g id="Oval">
            <use fill-opacity="0.992385643" fill="#171615" fill-rule="evenodd" xlink:href="#path-1"></use>
            <path stroke="#060605" stroke-width="1" d="M115,152.5 C143.551777,152.5 168.625,149.07692 168.625,145.5 C168.625,141.92308 143.551777,138.5 115,138.5 C86.8234669,138.5 63.5,141.863962 63.5,145.5 C63.5,149.136038 86.8234669,152.5 115,152.5 Z"></path>
        </g>
        <g transform="translate(110.000000, 133.000000)">
            <path d="M9.23242187,34.6630859 C16.688266,34.6630859 27,31.6421356 27,27.5 C27,23.3578644 20.9558441,20 13.5,20 C10.6967684,20 6.16670407,17.905224 4.00878906,18.7177734 C0.42722903,20.0663875 0,24.9152153 0,27.5 C0,31.6421356 1.77657775,34.6630859 9.23242187,34.6630859 Z" id="Oval-2" fill="#3F7615"></path>
            <path d="M27.5,32 C30.9629604,32 38.6102704,32.0004593 41,30.8095703 C43.7554206,29.4364443 41,26.7182687 41,24.5 C41,22.2258543 39.6095178,16.3325483 34.6787109,14.1943359 C30.6285316,12.438002 23.308671,14.1943359 19.9462891,14.1943359 C12.4904449,14.1943359 14,20.3578644 14,24.5 C14,28.6421356 20.0441559,32 27.5,32 Z" id="Oval-2-Copy" fill="#4D9317"></path>
            <path d="M45.2324219,28.6630859 C52.688266,28.6630859 63,25.6421356 63,21.5 C63,17.3578644 56.9558441,14 49.5,14 C46.6967684,14 42.1667041,11.905224 40.0087891,12.7177734 C36.427229,14.0663875 36,18.9152153 36,21.5 C36,25.6421356 37.7765778,28.6630859 45.2324219,28.6630859 Z" id="Oval-2-Copy-4" fill="#3F7615"></path>
            <path d="M24.9949578,19.5443356 C26.44859,19.5443356 29.9280064,25.7204317 32.157867,25.6324426 C35.240161,25.5108169 37.1083549,19.0449004 38.4949578,18.3539059 C41.2503784,16.9807798 38.4949578,14.2626043 38.4949578,12.0443356 C38.4949578,9.77018989 33.685705,8.3420532 28.7548981,6.20384082 C24.7047188,4.44750686 20.8036288,1.73867149 17.4412469,1.73867149 C9.98540276,1.73867149 15.2206881,7.90219993 15.2206881,12.0443356 C15.2206881,16.1864712 17.5391137,19.5443356 24.9949578,19.5443356 Z" id="Oval-2-Copy-2" fill="#3E7B0F" transform="translate(26.577112, 13.686023) rotate(-24.000000) translate(-26.577112, -13.686023) "></path>
            <path d="M41.5,26 C44.9629604,26 47.8856874,24.6818134 50.275417,23.4909244 C53.0308376,22.1177984 55,20.7182687 55,18.5 C55,16.2258543 58.2817121,14.6018737 55,11.5215334 C51.0097717,9.82890966 48.1783201,8.77703101 46.5056452,8.36589744 C38.9092521,6.49874909 34.268537,6.56517492 32.5834999,6.56517492 C25.1276558,6.56517492 28,14.3578644 28,18.5 C28,22.6421356 34.0441559,26 41.5,26 Z" id="Oval-2-Copy-3" fill="#4D9317"></path>
        </g>
        <g id="person" transform="translate(55.000000, 0.000000)">
            <path d="M32.1330459,160.853459 C35.5960063,160.853459 43.2433163,160.853918 45.6330459,159.663029 C48.3884665,158.289903 45.462443,145.808239 39.6695136,140.61435 C33.8765842,135.42046 33.0529887,149.368458 29.6906068,149.368458 C24.7200441,149.368458 18.3657387,152.736397 10.6276907,159.472275 C19.9940314,160.393064 27.1624832,160.853459 32.1330459,160.853459 Z" id="Oval-2-Copy-5" fill="#4D9317" transform="translate(28.653624, 150.154459) rotate(171.000000) translate(-28.653624, -150.154459) "></path>
            <g id="Oval-3">
                <use fill="#F4ECDF" fill-rule="evenodd" xlink:href="#path-2"></use>
                <ellipse stroke="#060605" stroke-width="2" cx="105" cy="22.5" rx="23" ry="5.5"></ellipse>
            </g>
            <g id="Oval-4">
                <use fill="#060606" fill-rule="evenodd" xlink:href="#path-3"></use>
                <ellipse stroke="#060605" stroke-width="1" cx="106" cy="23.5" rx="4.5" ry="4"></ellipse>
            </g>
            <path d="M42.101622,151.667911 C46.1922751,160.892508 49.3961894,163.316305 45.0352076,171.482044" id="Path-26" stroke="#060605" stroke-width="2" stroke-linecap="round"></path>
            <path d="M16.7005672,200 C15.5034775,196.328121 12.8830153,189.390801 11.2763719,185.878763 C8.07451555,178.879672 0.25707301,173.15665 0.489003418,165.463448 C0.607149762,161.544497 7.91031139,168.173009 11.7939305,168.711185 C23.7984175,170.374715 35.882211,171.766932 47.9981743,172.047065 C73.8514311,172.644816 99.7204895,170.823963 125.575468,171.341919 C128.486056,171.400227 133.446578,170.53281 136.243052,171.341919" id="Path-27" stroke="#060605" stroke-width="2" stroke-linecap="round"></path>
            <path d="M106.692488,14 C124.089458,14 138.383349,17.8659932 138.383349,14 C138.383349,10.1340068 114.89697,1 97.5,1 C80.1030304,1 66,-3.2905956 66,9 C66,21.2905956 89.2955184,14 106.692488,14 Z" id="Oval-5" fill="#46433E"></path>
        </g>
    </g>
</svg>