<?xml version="1.0" encoding="UTF-8"?>
<svg width="200px" height="200px" viewBox="0 0 200 200" version="1.1" xmlns="http://www.w3.org/2000/svg" xmlns:xlink="http://www.w3.org/1999/xlink" style="background: #FBDDDA;">
    <!-- Generator: Sketch 49.1 (51147) - http://www.bohemiancoding.com/sketch -->
    <title>ebola</title>
    <desc>Created with Sketch.</desc>
    <defs>
        <filter x="-24.4%" y="-52.5%" width="148.8%" height="205.0%" filterUnits="objectBoundingBox" id="filter-1">
            <feGaussianBlur stdDeviation="10" in="SourceGraphic"></feGaussianBlur>
        </filter>
        <filter x="-7.2%" y="-15.4%" width="114.3%" height="130.8%" filterUnits="objectBoundingBox" id="filter-2">
            <feGaussianBlur stdDeviation="2.02008929" in="SourceGraphic"></feGaussianBlur>
        </filter>
    </defs>
    <g id="ebola" stroke="none" stroke-width="1" fill="none" fill-rule="evenodd" stroke-linecap="round">
        <path d="M27.4948349,66.2089188 C28.7483692,83.4218209 33.0875105,95.8299323 35.3852827,112.934773 C37.4790856,128.521247 60.6992869,141.305395 78.7399524,131.181113 C127.017295,104.088244 140.622289,80.8507961 173.644894,94.4248047 C175.460486,95.1711076 175.295278,105.941664 173.644894,107.038896 C156.553697,118.401703 146.747033,57.7553325 128.696444,84.9974145 C125.380398,90.0020154 128.472531,94.8245753 133.023946,99.1616995 C138.932506,104.792071 147.300356,109.60435 147.300356,112.934773 C147.300356,118.830651 145.012881,124.086163 143.47474,124.85046 C131.907132,130.598368 130.668806,112.114684 133.023946,100.501148" id="ebola-copy" stroke="#6A1103" stroke-width="12" filter="url(#filter-1)"></path>
        <path d="M27.4948349,66.2089188 C28.7483692,83.4218209 33.0875105,95.8299323 35.3852827,112.934773 C37.4790856,128.521247 60.6992869,141.305395 78.7399524,131.181113 C127.017295,104.088244 140.622289,80.8507961 173.644894,94.4248047 C175.460486,95.1711076 175.295278,105.941664 173.644894,107.038896 C156.553697,118.401703 146.747033,57.7553325 128.696444,84.9974145 C125.380398,90.0020154 128.472531,94.8245753 133.023946,99.1616995 C138.932506,104.792071 147.300356,109.60435 147.300356,112.934773 C147.300356,118.830651 145.012881,124.086163 143.47474,124.85046 C131.907132,130.598368 130.668806,112.114684 133.023946,100.501148" id="shade" stroke="#170401" stroke-width="9" opacity="0.726845562" filter="url(#filter-2)"></path>
        <path d="M27.4948349,66.2089188 C28.7483692,83.4218209 33.0875105,95.8299323 35.3852827,112.934773 C37.4790856,128.521247 60.6992869,141.305395 78.7399524,131.181113 C127.017295,104.088244 140.622289,80.8507961 173.644894,94.4248047 C175.460486,95.1711076 175.295278,105.941664 173.644894,107.038896 C156.553697,118.401703 146.747033,57.7553325 128.696444,84.9974145 C125.380398,90.0020154 128.472531,94.8245753 133.023946,99.1616995 C138.932506,104.792071 147.300356,109.60435 147.300356,112.934773 C147.300356,118.830651 145.012881,124.086163 143.47474,124.85046 C131.907132,130.598368 130.668806,112.114684 133.023946,100.501148" stroke="#EA6A57" stroke-width="7"></path>
    </g>
</svg>