<?xml version="1.0" encoding="UTF-8"?>
<svg width="200px" height="200px" viewBox="0 0 200 200" version="1.1" xmlns="http://www.w3.org/2000/svg" xmlns:xlink="http://www.w3.org/1999/xlink" style="background: #1F022F;">
    <!-- Generator: Sketch 49.1 (51147) - http://www.bohemiancoding.com/sketch -->
    <title>gonorrhea</title>
    <desc>Created with Sketch.</desc>
    <defs>
        <radialGradient cx="50%" cy="50%" fx="50%" fy="50%" r="61.7647059%" gradientTransform="translate(0.500000,0.500000),scale(1.000000,0.809524),rotate(90.000000),translate(-0.500000,-0.500000)" id="radialGradient-1">
            <stop stop-color="#D53B1E" offset="0%"></stop>
            <stop stop-color="#DA4D24" offset="38.1139576%"></stop>
            <stop stop-color="#FED355" offset="100%"></stop>
        </radialGradient>
    </defs>
    <g id="gonorrhea" stroke="none" stroke-width="1" fill="none" fill-rule="evenodd">
        <g id="theclap" transform="translate(1.000000, 42.000000)">
            <g id="Group">
                <path d="M72.5714286,91.4285714 C87.1315604,91.4285714 96,87.3349014 96,55.4285714 C96,23.5222414 88.2744176,19.4285714 72.5714286,19.4285714 C54.5827253,19.4285714 37.7142857,36.8086856 37.7142857,55.4285714 C37.7142857,74.0484573 54.5827253,91.4285714 72.5714286,91.4285714 Z" id="Oval" fill="url(#radialGradient-1)"></path>
                <path d="M24.4564732,27.8448661 C35.1620863,27.2465372 38.1719257,44.752762 57.5569196,40.7912946" id="Path-2" stroke="#C37962" stroke-linecap="round"></path>
                <path d="M11.734375,57.6350446 C25.3492372,56.4540086 42.1278567,61.652004 51.4810268,57.0569196" id="Path-3" stroke="#C37962" stroke-linecap="round"></path>
                <path d="M23.0580357,81.3247768 C34.574902,75.1962951 47.963328,80.5186721 56.2834821,69.3984375" id="Path-4" stroke="#C37962" stroke-linecap="round"></path>
                <path d="M45.9285714,14.7399554 C59.397478,18.3129602 58.4694619,23.5558408 67.1808036,34.0982143 C67.6756883,34.6971185 68.8895677,32.6770737 68.3738839,32.0959821" id="Path-5" stroke="#C37962" stroke-linecap="round"></path>
                <path d="M47.4497768,96.8058036 C55.0139082,85.7283145 64.9655934,84.1141421 73.2857143,74.1350446" id="Path-6" stroke="#C37962" stroke-linecap="round"></path>
                <path d="M72.7008929,58.4140625 C53.7044654,82.2122647 64.0317654,75.043787 45.5491071,84.5892857" id="Path-7" stroke="#C37962" stroke-linecap="round"></path>
                <path d="M41.2444196,46.7265625 C52.5659632,46.8059049 63.2569777,53.0424958 73.7511161,48.03125" id="Path-8" stroke="#C37962" stroke-linecap="round"></path>
                <path d="M48.5691964,27.0926339 C59.482523,28.0434744 63.874662,36.3154831 73.6629464,40.2622768" id="Path-9" stroke="#C37962" stroke-linecap="round"></path>
                <path d="M73.7421875,0.392857143 C73.7421875,10.8108784 81.0246927,19.3568473 75.2745536,28.859375" id="Path-10" stroke="#C37962" stroke-linecap="round"></path>
                <path d="M0.290178571,38.2232143 C22.8205927,31.5677607 25.5043367,35.6187533 49.0870536,46.9910714" id="Path-11" stroke="#C37962" stroke-linecap="round"></path>
                <path d="M16.4140625,72.5881696 C39.4334071,69.8889794 31.4300453,74.2863851 42.9430804,65.7522321" id="Path-12" stroke="#C37962" stroke-linecap="round"></path>
                <path d="M20.8214286,47.4720982 C29.8836603,47.3655816 36.9134795,52.5306687 45.90625,52.0747768" id="Path-13" stroke="#C37962" stroke-linecap="round"></path>
                <path d="M33.8303571,11.828125 C35.3125408,24.4943092 43.3970141,27.8066364 53.5167411,35.5256696" id="Path-14" stroke="#C37962" stroke-linecap="round"></path>
                <path d="M20.4363839,48.7935268 C35.1928361,58.9819802 44.2243028,56.6407801 61.6283482,58.3995536 C62.2746762,58.4648685 62.2585565,59.5357143 62.5736607,60.1037946" id="Path-15" stroke="#C37962" stroke-linecap="round"></path>
                <path d="M36.1897321,97.5546875 C36.9275162,80.0017952 61.2222723,81.9807484 69.2075893,68.1339286" id="Path-16" stroke="#C37962" stroke-linecap="round"></path>
                <path d="M26.6272321,84.4051339 C45.6180307,85.9233841 28.9531976,87.1090531 51.0479911,66.9341518 C55.3285373,63.0255569 60.8947173,60.8151042 65.8180804,57.7555804" id="Path-17" stroke="#C37962" stroke-linecap="round"></path>
                <path d="M86.0301339,47.8861607 C90.0055056,0.46553054 86.692301,31.3698822 84.1462054,5.09598214" id="Path-18" stroke="#C37962" stroke-linecap="round"></path>
                <path d="M83.7075893,67.7645089 C83.78651,81.6896243 89.7022287,89.5563087 84.7946429,103.233259" id="Path-19" stroke="#C37962" stroke-linecap="round"></path>
                <path d="M78.0546875,56.6495536 C79.5531939,95.3878023 84.9439789,81.3161758 73.9397321,101.668527" id="Path-20" stroke="#C37962" stroke-linecap="round"></path>
                <path d="M81.8537946,53.6372768 C83.535331,65.32012 83.3306636,58.308904 79.9765625,74.5959821" id="Path-21" stroke="#C37962" stroke-linecap="round"></path>
                <path d="M77.4642857,51.1863839 C78.1937386,35.2581629 81.8054118,39.8097461 74.9955357,33.9308036" id="Path-22" stroke="#C37962" stroke-linecap="round"></path>
                <path d="M69.6160714,44.3660714 C65.7875744,42.5531994 61.9590774,40.7403274 58.1305804,38.9274554" id="Path-23" stroke="#C37962" stroke-linecap="round"></path>
                <path d="M74.6015625,79.8292411 C69.0885794,101.271325 74.7711275,94.4326333 63.1785714,103.934152" id="Path-24" stroke="#C37962" stroke-linecap="round"></path>
            </g>
            <g id="Group-Copy" transform="translate(143.500000, 52.000000) scale(-1, 1) translate(-143.500000, -52.000000) translate(95.000000, 0.000000)">
                <path d="M72.5714286,91.4285714 C87.1315604,91.4285714 96,87.3349014 96,55.4285714 C96,23.5222414 88.2744176,19.4285714 72.5714286,19.4285714 C54.5827253,19.4285714 37.7142857,36.8086856 37.7142857,55.4285714 C37.7142857,74.0484573 54.5827253,91.4285714 72.5714286,91.4285714 Z" id="Oval" fill="url(#radialGradient-1)"></path>
                <path d="M24.4564732,27.8448661 C35.1620863,27.2465372 38.1719257,44.752762 57.5569196,40.7912946" id="Path-2" stroke="#C37962" stroke-linecap="round"></path>
                <path d="M11.734375,57.6350446 C25.3492372,56.4540086 42.1278567,61.652004 51.4810268,57.0569196" id="Path-3" stroke="#C37962" stroke-linecap="round"></path>
                <path d="M23.0580357,81.3247768 C34.574902,75.1962951 47.963328,80.5186721 56.2834821,69.3984375" id="Path-4" stroke="#C37962" stroke-linecap="round"></path>
                <path d="M45.9285714,14.7399554 C59.397478,18.3129602 58.4694619,23.5558408 67.1808036,34.0982143 C67.6756883,34.6971185 68.8895677,32.6770737 68.3738839,32.0959821" id="Path-5" stroke="#C37962" stroke-linecap="round"></path>
                <path d="M47.4497768,96.8058036 C55.0139082,85.7283145 64.9655934,84.1141421 73.2857143,74.1350446" id="Path-6" stroke="#C37962" stroke-linecap="round"></path>
                <path d="M72.7008929,58.4140625 C53.7044654,82.2122647 64.0317654,75.043787 45.5491071,84.5892857" id="Path-7" stroke="#C37962" stroke-linecap="round"></path>
                <path d="M41.2444196,46.7265625 C52.5659632,46.8059049 63.2569777,53.0424958 73.7511161,48.03125" id="Path-8" stroke="#C37962" stroke-linecap="round"></path>
                <path d="M48.5691964,27.0926339 C59.482523,28.0434744 63.874662,36.3154831 73.6629464,40.2622768" id="Path-9" stroke="#C37962" stroke-linecap="round"></path>
                <path d="M73.7421875,0.392857143 C73.7421875,10.8108784 81.0246927,19.3568473 75.2745536,28.859375" id="Path-10" stroke="#C37962" stroke-linecap="round"></path>
                <path d="M0.290178571,38.2232143 C22.8205927,31.5677607 25.5043367,35.6187533 49.0870536,46.9910714" id="Path-11" stroke="#C37962" stroke-linecap="round"></path>
                <path d="M16.4140625,72.5881696 C39.4334071,69.8889794 31.4300453,74.2863851 42.9430804,65.7522321" id="Path-12" stroke="#C37962" stroke-linecap="round"></path>
                <path d="M20.8214286,47.4720982 C29.8836603,47.3655816 36.9134795,52.5306687 45.90625,52.0747768" id="Path-13" stroke="#C37962" stroke-linecap="round"></path>
                <path d="M33.8303571,11.828125 C35.3125408,24.4943092 43.3970141,27.8066364 53.5167411,35.5256696" id="Path-14" stroke="#C37962" stroke-linecap="round"></path>
                <path d="M20.4363839,48.7935268 C35.1928361,58.9819802 44.2243028,56.6407801 61.6283482,58.3995536 C62.2746762,58.4648685 62.2585565,59.5357143 62.5736607,60.1037946" id="Path-15" stroke="#C37962" stroke-linecap="round"></path>
                <path d="M36.1897321,97.5546875 C36.9275162,80.0017952 61.2222723,81.9807484 69.2075893,68.1339286" id="Path-16" stroke="#C37962" stroke-linecap="round"></path>
                <path d="M26.6272321,84.4051339 C45.6180307,85.9233841 28.9531976,87.1090531 51.0479911,66.9341518 C55.3285373,63.0255569 60.8947173,60.8151042 65.8180804,57.7555804" id="Path-17" stroke="#C37962" stroke-linecap="round"></path>
                <path d="M86.0301339,47.8861607 C90.0055056,0.46553054 86.692301,31.3698822 84.1462054,5.09598214" id="Path-18" stroke="#C37962" stroke-linecap="round"></path>
                <path d="M83.7075893,67.7645089 C83.78651,81.6896243 89.7022287,89.5563087 84.7946429,103.233259" id="Path-19" stroke="#C37962" stroke-linecap="round"></path>
                <path d="M78.0546875,56.6495536 C79.5531939,95.3878023 84.9439789,81.3161758 73.9397321,101.668527" id="Path-20" stroke="#C37962" stroke-linecap="round"></path>
                <path d="M81.8537946,53.6372768 C83.535331,65.32012 83.3306636,58.308904 79.9765625,74.5959821" id="Path-21" stroke="#C37962" stroke-linecap="round"></path>
                <path d="M77.4642857,51.1863839 C78.1937386,35.2581629 81.8054118,39.8097461 74.9955357,33.9308036" id="Path-22" stroke="#C37962" stroke-linecap="round"></path>
                <path d="M69.6160714,44.3660714 C65.7875744,42.5531994 61.9590774,40.7403274 58.1305804,38.9274554" id="Path-23" stroke="#C37962" stroke-linecap="round"></path>
                <path d="M74.6015625,79.8292411 C69.0885794,101.271325 74.7711275,94.4326333 63.1785714,103.934152" id="Path-24" stroke="#C37962" stroke-linecap="round"></path>
            </g>
        </g>
    </g>
</svg>