<?xml version="1.0" encoding="UTF-8"?>
<svg width="200px" height="200px" viewBox="0 0 200 200" version="1.1" xmlns="http://www.w3.org/2000/svg" xmlns:xlink="http://www.w3.org/1999/xlink" style="background: #F9DBD9;">
    <!-- Generator: Sketch 49.1 (51147) - http://www.bohemiancoding.com/sketch -->
    <title>spider</title>
    <desc>Created with Sketch.</desc>
    <defs>
        <path d="M98.2529297,159.886719 C150.996123,159.886719 188.761719,119.433594 188.761719,108.583984 C188.761719,97.734375 140.591797,51.7089844 98.2529297,51.7089844 C55.9140625,51.7089844 6,103.787109 6,113.5 C6,123.212891 45.5097361,159.886719 98.2529297,159.886719 Z" id="path-1"></path>
        <radialGradient cx="51.415614%" cy="29.3071201%" fx="51.415614%" fy="29.3071201%" r="70.7538526%" gradientTransform="translate(0.514156,0.293071),scale(0.482037,1.000000),rotate(92.378821),translate(-0.514156,-0.293071)" id="radialGradient-2">
            <stop stop-color="#DFB0B0" stop-opacity="0.5" offset="0%"></stop>
            <stop stop-color="#822222" stop-opacity="0.5" offset="100%"></stop>
        </radialGradient>
        <path d="M88.3574219,24.171875 C81.9003906,21.9765625 64.3320313,26.8359375 58.7441406,30.3085938 C53.15625,33.78125 4.53125,108.363281 6.94335938,111.990234 C9.35546875,115.617187 67.3046875,57.6698501 72.8183594,57.6698501 C78.3320313,57.6698501 94.3294271,58.6698501 98.6035156,58.6698501 C102.877604,58.6698501 119.689453,57.6698501 126.3125,57.6698501 C132.935547,57.6698501 187.792969,113.410156 190.392578,109.181641 C192.992188,104.953125 154.343679,43.748307 141.912109,33.0644531 C132.536013,25.006513 114.185292,24.171875 111.994141,24.171875 C106.897786,24.171875 102.434245,26.2174479 98.6035156,30.3085938 C96.077474,27.6809896 92.6621094,25.6354167 88.3574219,24.171875 Z" id="path-3"></path>
        <filter x="-2.2%" y="-4.5%" width="104.4%" height="109.1%" filterUnits="objectBoundingBox" id="filter-4">
            <feMorphology radius="1" operator="erode" in="SourceAlpha" result="shadowSpreadInner1"></feMorphology>
            <feGaussianBlur stdDeviation="2.5" in="shadowSpreadInner1" result="shadowBlurInner1"></feGaussianBlur>
            <feOffset dx="0" dy="1" in="shadowBlurInner1" result="shadowOffsetInner1"></feOffset>
            <feComposite in="shadowOffsetInner1" in2="SourceAlpha" operator="arithmetic" k2="-1" k3="1" result="shadowInnerInner1"></feComposite>
            <feColorMatrix values="0 0 0 0 0.904815051   0 0 0 0 0.71998672   0 0 0 0 0.6908033  0 0 0 1 0" type="matrix" in="shadowInnerInner1"></feColorMatrix>
        </filter>
        <radialGradient cx="51.415614%" cy="29.3071201%" fx="51.415614%" fy="29.3071201%" r="70.7693388%" gradientTransform="translate(0.514156,0.293071),scale(0.430438,1.000000),rotate(92.663596),translate(-0.514156,-0.293071)" id="radialGradient-5">
            <stop stop-color="#DFB0B0" stop-opacity="0.5" offset="0%"></stop>
            <stop stop-color="#822222" stop-opacity="0.5" offset="100%"></stop>
        </radialGradient>
        <path d="M88.375,109.762103 C82.4482422,109.762103 68.5527344,115.182025 62.9648437,118.654681 C57.3769531,122.127338 2.3638405,181.805042 5.93164063,186.9164 C9.49944075,192.027758 74.1347656,143.260078 79.578125,142.455463 C85.0214844,141.650847 112.638672,141.220944 119.955078,143.260078 C127.271484,145.299213 188.130859,192.994525 190.658203,189.168353 C193.185547,185.342181 143.158132,129.338535 130.726562,118.654681 C121.350466,110.596741 114.202871,109.762103 112.011719,109.762103 C104.367188,109.762103 94.3017578,109.762103 88.375,109.762103 Z" id="path-6"></path>
        <filter x="-2.2%" y="-5.0%" width="104.3%" height="110.0%" filterUnits="objectBoundingBox" id="filter-7">
            <feMorphology radius="1" operator="erode" in="SourceAlpha" result="shadowSpreadInner1"></feMorphology>
            <feGaussianBlur stdDeviation="2.5" in="shadowSpreadInner1" result="shadowBlurInner1"></feGaussianBlur>
            <feOffset dx="0" dy="1" in="shadowBlurInner1" result="shadowOffsetInner1"></feOffset>
            <feComposite in="shadowOffsetInner1" in2="SourceAlpha" operator="arithmetic" k2="-1" k3="1" result="shadowInnerInner1"></feComposite>
            <feColorMatrix values="0 0 0 0 0.904815051   0 0 0 0 0.71998672   0 0 0 0 0.6908033  0 0 0 1 0" type="matrix" in="shadowInnerInner1"></feColorMatrix>
        </filter>
        <ellipse id="path-8" cx="97" cy="90" rx="2" ry="1"></ellipse>
    </defs>
    <g id="spider" stroke="none" stroke-width="1" fill="none" fill-rule="evenodd">
        <g id="Oval">
            <use fill="#3C0C03" fill-rule="evenodd" xlink:href="#path-1"></use>
            <path stroke="#060605" stroke-width="1" d="M98.2529297,159.386719 C121.841845,159.386719 144.310581,151.262515 162.995127,137.897285 C177.594257,127.454392 188.261719,114.456342 188.261719,108.583984 C188.261719,103.066262 175.469792,88.6359436 159.086458,76.4794164 C138.937371,61.5286794 117.178488,52.2089844 98.2529297,52.2089844 C79.4386305,52.2089844 57.4595359,62.614429 36.561964,79.352411 C20.0690455,92.5624707 6.5,108.436332 6.5,113.5 C6.5,118.679718 17.5812111,130.436098 32.6144011,139.91272 C51.8106999,152.013683 74.6511948,159.386719 98.2529297,159.386719 Z"></path>
        </g>
        <ellipse id="throat" fill="#300A03" cx="96.5" cy="104" rx="43.5" ry="32"></ellipse>
        <path d="M89.4580393,94.0687134 L90.7291577,82.597773 C84.8526174,93.1129245 71.6537342,100 62.0546875,100 C49.3521383,100 37,95.5685425 37,79 C37,62.4314575 47.2974508,49 60,49 C68.32694,49 80.2457553,51.4934926 87.4689787,57.8786685 C87.9214848,55.092865 90.0448717,52.7436203 92.9738744,52.1427931 C93.4367282,52.0478477 93.9080057,52.0000092 94.3804972,52.0000092 L102.969099,52.0000055 C105.846734,52.0000055 108.318812,53.7364018 109.394729,56.2185908 C116.674455,51.056991 127.200611,49 134.763672,49 C147.466221,49 157.763672,62.4314575 157.763672,79 C157.763672,95.5685425 145.411534,100 132.708984,100 C123.891815,100 112.037364,94.1891852 105.610352,85.0932892 C106.012909,87.7085221 106.619826,91.1224725 107.431104,95.3351403 C108.427117,96.9897867 109,98.9279913 109,101 C109,107.075132 104.075132,112 98,112 C91.9248678,112 87,107.075132 87,101 C87,98.3726593 87.9211193,95.9604576 89.4580393,94.0687134 Z" id="tonsils" fill="#561A06"></path>
        <g id="teeth" transform="translate(53.000000, 45.000000)" fill="#F8F6F2">
            <rect id="Rectangle" x="17" y="2" width="26" height="30" rx="8"></rect>
            <path d="M8,1 L8,1 C12.418278,1 16,4.581722 16,9 L16,26 C16,28.7614237 13.7614237,31 11,31 L5,31 C2.23857625,31 3.38176876e-16,28.7614237 0,26 L0,9 C-5.41083001e-16,4.581722 3.581722,1 8,1 Z" id="Rectangle-Copy-2"></path>
            <path d="M17,100 L17,100 C21.418278,100 25,103.581722 25,108 L25,125 C25,127.761424 22.7614237,130 20,130 L14,130 C11.2385763,130 9,127.761424 9,125 L9,108 C9,103.581722 12.581722,100 17,100 Z" id="Rectangle-Copy-4"></path>
            <path d="M34,100 L34,100 C38.418278,100 42,103.581722 42,108 L42,125 C42,127.761424 39.7614237,130 37,130 L31,130 C28.2385763,130 26,127.761424 26,125 L26,108 C26,103.581722 29.581722,100 34,100 Z" id="Rectangle-Copy-5"></path>
            <path d="M51,100 L51,100 C55.418278,100 59,103.581722 59,108 L59,125 C59,127.761424 56.7614237,130 54,130 L48,130 C45.2385763,130 43,127.761424 43,125 L43,108 C43,103.581722 46.581722,100 51,100 Z" id="Rectangle-Copy-6"></path>
            <path d="M68,100 L68,100 C72.418278,100 76,103.581722 76,108 L76,125 C76,127.761424 73.7614237,130 71,130 L65,130 C62.2385763,130 60,127.761424 60,125 L60,108 C60,103.581722 63.581722,100 68,100 Z" id="Rectangle-Copy-7"></path>
            <path d="M79,0 L79,0 C83.418278,-8.11624501e-16 87,3.581722 87,8 L87,25 C87,27.7614237 84.7614237,30 82,30 L76,30 C73.2385763,30 71,27.7614237 71,25 L71,8 C71,3.581722 74.581722,8.11624501e-16 79,0 Z" id="Rectangle-Copy-3"></path>
            <rect id="Rectangle-Copy" x="44" y="2" width="26" height="30" rx="8"></rect>
        </g>
        <g id="upperlip" stroke-linecap="round">
            <use fill="#F6CBC4" fill-rule="evenodd" xlink:href="#path-3"></use>
            <use fill="url(#radialGradient-2)" fill-rule="evenodd" xlink:href="#path-3"></use>
            <use fill="black" fill-opacity="1" filter="url(#filter-4)" xlink:href="#path-3"></use>
            <use stroke="#DCB6B0" stroke-width="1" xlink:href="#path-3"></use>
        </g>
        <g id="upperlip-copy" stroke-linecap="round" transform="translate(98.258068, 149.574411) scale(1, -1) translate(-98.258068, -149.574411) ">
            <use fill="#F6CBC4" fill-rule="evenodd" xlink:href="#path-6"></use>
            <use fill="url(#radialGradient-5)" fill-rule="evenodd" xlink:href="#path-6"></use>
            <use fill="black" fill-opacity="1" filter="url(#filter-7)" xlink:href="#path-6"></use>
            <use stroke="#DCB6B0" stroke-width="1" xlink:href="#path-6"></use>
        </g>
        <circle id="thorax" fill="#3F2805" cx="97.5" cy="94.5" r="4.5"></circle>
        <g id="legs" transform="translate(82.000000, 85.000000)" stroke="#060605" stroke-linecap="round">
            <path d="M18.7729492,6.33447266 C26.0418821,0.393714921 21.8525729,1.62750275 31.4335938,2.96386719" id="Path-28"></path>
            <path d="M20.112793,7.84521484 C26.8448256,6.40966455 30.4134268,5.15422558 34.5424805,11.190918" id="Path-29"></path>
            <path d="M12.3925781,5.84716797 C7.79766563,0.844025726 5.6343269,-1.4156098 0.0805664062,3.51904297" id="Path-30"></path>
            <path d="M11.1411133,7.63916016 C5.92910104,4.85221143 2.01491813,2.94323535 1.35986328,10.1923828" id="Path-31"></path>
            <path d="M11.012207,9.46630859 C1.50052457,11.1219929 4.48825877,8.50862382 0.7109375,15.4404297" id="Path-32"></path>
            <path d="M20.1660156,9.38427734 C30.0030306,9.3937233 26.1669057,7.43749258 32.0341797,14.4863281" id="Path-33"></path>
            <path d="M11.2626953,10.2226562 C4.80930146,11.6039516 7.58490184,9.77637906 4.77587891,17.793457" id="Path-34"></path>
            <path d="M19.9892578,10.0683594 C28.4924777,12.1456037 26.1430568,9.45278652 27.4433594,17.7739258" id="Path-35"></path>
        </g>
        <g id="Oval-3">
            <use fill="#E6C28B" fill-rule="evenodd" xlink:href="#path-8"></use>
            <ellipse stroke="#040404" stroke-width="1" cx="97" cy="90" rx="1.5" ry="1"></ellipse>
        </g>
        <ellipse id="abdomen" fill="#040300" cx="97.5" cy="104" rx="7.5" ry="10"></ellipse>
        <path d="M62.7228178,144.141561 C62.7228178,128.763996 57.5054031,114.631983 57.7504976,99.1524316" id="Path-37" stroke="#A2A19E" stroke-linecap="round"></path>
        <path d="M57.7504976,100.692166 C25.8671172,102.14041 41.5657426,98.8368506 10.7892057,111.222131" id="Path-38" stroke="#A2A19E" stroke-linecap="round"></path>
        <path d="M96.0366211,113.924316 C92.8037109,116.956868 66.0029297,142.074382 62.7700195,145.106934" id="Path-36" stroke="#A2A19E" stroke-linecap="round"></path>
        <path d="M11.6010131,111.261892 C26.920936,111.569261 42.2408589,111.87663 57.5607818,112.183999" id="Path-41" stroke="#A2A19E" stroke-linecap="round"></path>
        <path d="M10.5421865,112.132473 C18.2602392,112.132473 17.3581548,111.822229 60.3800476,126.828886" id="Path-42" stroke="#A2A19E" stroke-linecap="round"></path>
        <path d="M37.6847371,87.7783043 C36.2960938,89.3011719 42.6048293,99.3338911 52.5847656,101.108984 C53.1830507,101.215399 48.5607074,104.819234 49.2667969,106.421484 C49.7076666,107.421901 51.1463256,110.810643 51.4898744,112.021875 L49.2667969,117.716406 C49.8218322,119.673265 52.7532458,122.455829 53.1019531,124.459766 C53.437759,126.389561 51.1676502,135.450312 51.4898744,137.382422" id="Path-39" stroke="#A2A19E" stroke-linecap="round"></path>
        <path d="M29.7515625,94.884375 C31.090312,96.6140025 35.9578125,96.7845234 35.9578125,101.666406 C35.9578125,103.541406 34.7644531,105.300083 34.7644531,107.124219 C34.7644531,108.741797 38.6359375,110.633963 38.6359375,111.882812 C38.6359375,112.647426 37.6314813,113.96204 37.2960938,115.363281 C36.9634736,116.75296 37.2999151,118.22994 37.2960938,118.837891 C37.285364,120.544907 35.8256414,121.605721 35.3902344,122.810938 C34.6478185,124.865961 34.7644531,126.578826 34.7644531,127.108984" id="Path-40" stroke="#A2A19E" stroke-linecap="round"></path>
    </g>
</svg>