<?xml version="1.0" encoding="UTF-8"?>
<svg width="200px" height="200px" viewBox="0 0 200 200" version="1.1" xmlns="http://www.w3.org/2000/svg" xmlns:xlink="http://www.w3.org/1999/xlink" style="background: #DDF5D1;">
    <!-- Generator: Sketch 49.1 (51147) - http://www.bohemiancoding.com/sketch -->
    <title>turd</title>
    <desc>Created with Sketch.</desc>
    <defs>
        <radialGradient cx="50%" cy="50%" fx="50%" fy="50%" r="71.5021307%" gradientTransform="translate(0.500000,0.500000),scale(0.720942,1.000000),rotate(90.000000),translate(-0.500000,-0.500000)" id="radialGradient-1">
            <stop stop-color="#3B2607" stop-opacity="0.493234828" offset="0%"></stop>
            <stop stop-color="#5A3D10" stop-opacity="0.719910553" offset="100%"></stop>
        </radialGradient>
        <radialGradient cx="50%" cy="50%" fx="50%" fy="50%" r="71.5021307%" gradientTransform="translate(0.500000,0.500000),scale(0.581418,1.000000),rotate(90.000000),translate(-0.500000,-0.500000)" id="radialGradient-2">
            <stop stop-color="#3B2607" stop-opacity="0.493234828" offset="0%"></stop>
            <stop stop-color="#5A3D10" stop-opacity="0.719910553" offset="100%"></stop>
        </radialGradient>
        <radialGradient cx="50%" cy="50%" fx="50%" fy="50%" r="71.5021307%" gradientTransform="translate(0.500000,0.500000),scale(0.589710,1.000000),rotate(90.000000),translate(-0.500000,-0.500000)" id="radialGradient-3">
            <stop stop-color="#3B2607" stop-opacity="0.493234828" offset="0%"></stop>
            <stop stop-color="#5A3D10" stop-opacity="0.719910553" offset="100%"></stop>
        </radialGradient>
        <radialGradient cx="50%" cy="50%" fx="50%" fy="50%" r="71.5021307%" gradientTransform="translate(0.500000,0.500000),scale(0.624442,1.000000),rotate(90.000000),translate(-0.500000,-0.500000)" id="radialGradient-4">
            <stop stop-color="#3B2607" stop-opacity="0.493234828" offset="0%"></stop>
            <stop stop-color="#5A3D10" stop-opacity="0.719910553" offset="100%"></stop>
        </radialGradient>
        <radialGradient cx="50%" cy="50%" fx="50%" fy="50%" r="71.5021307%" gradientTransform="translate(0.500000,0.500000),scale(0.842647,1.000000),rotate(90.000000),translate(-0.500000,-0.500000)" id="radialGradient-5">
            <stop stop-color="#3B2607" stop-opacity="0.493234828" offset="0%"></stop>
            <stop stop-color="#5A3D10" stop-opacity="0.719910553" offset="100%"></stop>
        </radialGradient>
        <radialGradient cx="50%" cy="50%" fx="50%" fy="50%" r="71.5021307%" gradientTransform="translate(0.500000,0.500000),scale(0.867786,1.000000),rotate(90.000000),translate(-0.500000,-0.500000)" id="radialGradient-6">
            <stop stop-color="#3B2607" stop-opacity="0.493234828" offset="0%"></stop>
            <stop stop-color="#5A3D10" stop-opacity="0.719910553" offset="100%"></stop>
        </radialGradient>
    </defs>
    <g id="turd" stroke="none" stroke-width="1" fill="none" fill-rule="evenodd">
        <g id="baseturd" transform="translate(100.000000, 141.000000)">
            <path d="M44.7246094,49.4257813 C75.7578125,49.4257813 89.4492187,54 89.4492187,34.5 C89.4492187,15 53.6268412,28.0605469 34.296875,28.0605469 C14.9669088,28.0605469 0,20.6425781 0,34.5 C1.52298886e-15,48.3574219 13.6914062,49.4257813 44.7246094,49.4257813 Z" id="Oval-7" fill="#5A3D10"></path>
            <path d="M48.8024359,32.0120835 C67.5801174,32.0120835 82.8024359,40.2659898 82.8024359,20.0120835 C82.8024359,7.15880565 73.4867903,8.26782489 64.7905591,7.99415385 C59.7834648,7.83658022 57.6441472,4.65916502 50.7829205,4.65916502 C32.005239,4.65916502 14.8024359,5.77184917 14.8024359,20.0120835 C14.8024359,34.2523179 30.0247544,32.0120835 48.8024359,32.0120835 Z" id="Oval" fill="#5F3E0B" transform="translate(48.802436, 19.167804) rotate(-7.000000) translate(-48.802436, -19.167804) "></path>
            <path d="M28,35 C35.7319865,35 49.8457031,32.8309916 49.8457031,26.7558594 C49.8457031,20.6807271 35.7319865,13 28,13 C20.2680135,13 19.3300781,17.9248678 19.3300781,24 C19.3300781,30.0751322 20.2680135,35 28,35 Z" id="Oval-2" fill="url(#radialGradient-1)"></path>
            <path d="M54.734375,26.8710938 C62.4663615,26.8710938 67.6660156,17.4403666 67.6660156,11.3652344 C67.6660156,5.29010213 56.7319865,9 49,9 C41.2680135,9 35,13.9248678 35,20 C35,26.0751322 47.0023885,26.8710938 54.734375,26.8710938 Z" id="Oval-2-Copy" fill="url(#radialGradient-2)"></path>
            <path d="M49,49 C68.234375,49 63,44.0751322 63,38 C63,31.9248678 56.7319865,27 49,27 C41.2680135,27 26.34375,31.0898438 26.34375,38 C26.34375,44.9101562 29.765625,49 49,49 Z" id="Oval-2-Copy-2" fill="url(#radialGradient-3)"></path>
            <path d="M21,48 C28.7319865,48 35,43.0751322 35,37 C35,30.9248678 28.7319865,30.515625 21,30.515625 C13.2680135,30.515625 7,30.9248678 7,37 C7,43.0751322 13.2680135,48 21,48 Z" id="Oval-2-Copy-4" fill="url(#radialGradient-4)"></path>
            <path d="M71,48 C78.7319865,48 85.6484375,49.3515625 87.7792969,37.7421875 C89.9101562,26.1328125 78.7319865,21.8886719 71,21.8886719 C63.2680135,21.8886719 57,28.9248678 57,35 C57,41.0751322 63.2680135,48 71,48 Z" id="Oval-2-Copy-3" fill="url(#radialGradient-5)"></path>
            <path d="M71,27.6445312 C75.4414062,27.6445313 82.6054687,21.7171059 80.5585938,15.0800781 C78.5117188,8.44305033 78.7319865,6.88867188 71,6.88867188 C63.2680135,6.88867188 57,13.9248678 57,20 C57,26.0751322 66.5585938,27.6445312 71,27.6445312 Z" id="Oval-2-Copy-5" fill="url(#radialGradient-6)"></path>
        </g>
        <path d="M118.761515,129.658121 L128.64266,122.092232 C129.836093,121.178433 131.544343,121.405121 132.458142,122.598555 C132.458446,122.598951 132.458749,122.599347 132.459052,122.599743 L138.664299,118.649482 C139.90723,117.858231 141.556261,118.224391 142.347512,119.467323 C142.42836,119.594322 142.498312,119.727938 142.556621,119.866737 C142.942683,120.785734 142.994073,121.780802 142.746719,122.697616 C147.648524,119.316059 150.87326,116.103505 154.926928,121.935872 C157.5659,125.732791 154.249144,132.513391 149.984678,135.11862 C147.190544,136.8256 143.989282,138.394754 140.747146,139.735415 C134.029823,146.457358 129.899417,150.493981 128.355914,151.845268 C124.169087,155.5107 118.179657,158.48153 116.123277,159.602312 C113.534801,161.0131 81.9093235,174.832508 79.3837586,178.807753 C75.5074195,180.733729 68.5833113,191.060323 61.334458,194.010975 C54.0856046,196.961628 48.2935033,203.191346 37.576428,194.006548 C31.1349746,188.486063 25.3103044,176.347954 20.1024174,157.592222 C19.9582158,157.072893 19.8686612,156.549469 19.83077,156.028622 C16.2531384,147.748675 13.7623644,142.290146 12.3584479,139.653036 C10.4111066,135.99516 1.47754319,123.895898 -14.4422425,103.355251 C-15.4330503,102.07686 -16.0130919,100.528168 -16.1058707,98.9134312 L-20.8796307,15.8302146 C-3.56284372,51.2571971 9.98218556,77.2496372 19.7554571,93.8075348 C29.5287287,110.365432 38.8660184,123.140266 47.7673263,132.132036 L54.3000508,135.559989 C55.2956691,135.276763 56.2202082,135.04407 57.073668,134.86191 C64.531346,133.270159 84.212733,131.769444 116.117829,130.359765 L118.761515,129.658121 Z" id="foot" fill="#C0A67D" transform="translate(67.494092, 107.329110) rotate(12.000000) translate(-67.494092, -107.329110) "></path>
        <path d="M128.642578,135.944336 C126.412109,137.057292 124.181641,138.170247 121.951172,139.283203" id="Path-44" stroke="#B29972" stroke-linecap="round"></path>
        <path d="M131.404625,136.479758 C133.716105,136.479758 136.015429,136.248331 136.417727,134.932473 C136.820025,133.616616 134.181069,133.930365 132.495635,133.991002 C130.810201,134.051639 128.019374,134.165043 128.019374,134.688552 C128.019374,135.21206 129.093145,136.479758 131.404625,136.479758 Z" id="Path-Copy-2" fill="#F8DEFC" transform="translate(132.239126, 135.197350) rotate(-17.000000) translate(-132.239126, -135.197350) "></path>
        <path d="M127.227311,135.58076 C127.637632,134.511836 124.990652,134.578652 123.305218,134.639289 C121.619784,134.699926 120.653191,134.151609 120.978083,135.488998 C121.302976,136.826388 126.816989,136.649684 127.227311,135.58076 Z" id="Path-Copy-3" fill="#F8DEFC" transform="translate(124.092755, 135.507795) rotate(-21.000000) translate(-124.092755, -135.507795) "></path>
        <path d="M130.527832,139.743652 C116.198635,142.762126 122.660847,142.843517 111.188477,141.118652" id="Path-43" stroke="#B29972" stroke-linecap="round"></path>
        <path d="M136.389615,141.264041 C140.536867,141.264041 147.099912,139.382407 147.099912,138.035612 C147.099912,136.688817 141.371104,134.70539 138.347103,134.861386 C135.323101,135.017383 130.315806,135.30913 130.315806,136.655925 C130.315806,138.00272 132.242362,141.264041 136.389615,141.264041 Z" id="Path" fill="#F8DEFC" transform="translate(138.707859, 138.058379) rotate(-17.000000) translate(-138.707859, -138.058379) "></path>
        <path d="M120.740234,141.54834 C120.740234,141.54834 119.25003,141.768354 117.920898,141.54834 C114.766914,141.026252 110.013415,140.451254 109.120605,140.333008 C107.851554,140.164931 106.352539,140.435547 104.854004,139.636719 C103.355469,138.837891 106.085925,135.923279 107.17041,135.429688 C108.254895,134.936096 110.713963,137.050781 111.988281,137.050781 C113.2626,137.050781 112.930975,135.698217 113.523438,135.429688 C114.1159,135.161158 116.130371,133.586426 117.920898,135.429688 C119.711426,137.272949 120.740234,141.54834 120.740234,141.54834 Z" id="Path-45" fill="#4B320B"></path>
        <path d="M115.635742,167.660645 C115.635742,167.660645 111.778646,167.9611 104.064453,168.562012 C102.042212,171.879619 100.687394,172.7346 100,171.126953 C98.9689091,168.715483 99.8792008,164.000941 101.333008,162.173828 C102.786815,160.346715 103.786533,160.041932 107.866699,159.618164 C111.946866,159.194396 112.547192,162.805711 116.776855,160.569824 C121.006519,158.333938 120.354146,154.600244 122.805176,153.676758 C124.439195,153.0611 128.336494,153.294499 134.49707,154.376953 C121.922852,163.232747 115.635742,167.660645 115.635742,167.660645 Z" id="Path-46" fill="#54380D"></path>
    </g>
</svg>