<?xml version="1.0" encoding="UTF-8"?>
<svg width="200px" height="200px" viewBox="0 0 200 200" version="1.1" xmlns="http://www.w3.org/2000/svg" xmlns:xlink="http://www.w3.org/1999/xlink" style="background: #EAF4DA;">
    <!-- Generator: Sketch 49.1 (51147) - http://www.bohemiancoding.com/sketch -->
    <title>roaches</title>
    <desc>Created with Sketch.</desc>
    <defs>
        <path d="M75.0458984,8.93359375 C100.223633,8.93359375 125.219401,5.95572917 150.033203,0 L119.030228,85.1868168 C117.880006,88.3472797 114.875879,90.4508497 111.512617,90.4508497 L37.551409,90.4508497 C34.1567498,90.4508497 31.1317149,88.3084293 30.0049536,85.1062239 L0.05859375,0 C24.8723958,5.95572917 49.8681641,8.93359375 75.0458984,8.93359375 Z" id="path-1"></path>
        <path d="M33.8574219,11.7216808 L48.5,87.5824822" id="path-2"></path>
        <filter x="-47.8%" y="-9.2%" width="195.6%" height="118.5%" filterUnits="objectBoundingBox" id="filter-3">
            <feMorphology radius="2" operator="dilate" in="SourceAlpha" result="shadowSpreadOuter1"></feMorphology>
            <feOffset dx="0" dy="0" in="shadowSpreadOuter1" result="shadowOffsetOuter1"></feOffset>
            <feMorphology radius="2" operator="erode" in="SourceAlpha" result="shadowInner"></feMorphology>
            <feOffset dx="0" dy="0" in="shadowInner" result="shadowInner"></feOffset>
            <feComposite in="shadowOffsetOuter1" in2="shadowInner" operator="out" result="shadowOffsetOuter1"></feComposite>
            <feGaussianBlur stdDeviation="1" in="shadowOffsetOuter1" result="shadowBlurOuter1"></feGaussianBlur>
            <feColorMatrix values="0 0 0 0 0.985703656   0 0 0 0 0.760833114   0 0 0 0 0.422863913  0 0 0 1 0" type="matrix" in="shadowBlurOuter1"></feColorMatrix>
        </filter>
        <path d="M14.3710938,9.22952453 L39.5,87.5824822" id="path-4"></path>
        <filter x="-27.9%" y="-8.9%" width="155.7%" height="117.9%" filterUnits="objectBoundingBox" id="filter-5">
            <feMorphology radius="2" operator="dilate" in="SourceAlpha" result="shadowSpreadOuter1"></feMorphology>
            <feOffset dx="0" dy="0" in="shadowSpreadOuter1" result="shadowOffsetOuter1"></feOffset>
            <feMorphology radius="2" operator="erode" in="SourceAlpha" result="shadowInner"></feMorphology>
            <feOffset dx="0" dy="0" in="shadowInner" result="shadowInner"></feOffset>
            <feComposite in="shadowOffsetOuter1" in2="shadowInner" operator="out" result="shadowOffsetOuter1"></feComposite>
            <feGaussianBlur stdDeviation="1" in="shadowOffsetOuter1" result="shadowBlurOuter1"></feGaussianBlur>
            <feColorMatrix values="0 0 0 0 0.985703656   0 0 0 0 0.760833114   0 0 0 0 0.422863913  0 0 0 1 0" type="matrix" in="shadowBlurOuter1"></feColorMatrix>
        </filter>
        <path d="M52.515625,14.4192446 L57.5,87.5824822" id="path-6"></path>
        <filter x="-140.4%" y="-9.6%" width="380.9%" height="119.1%" filterUnits="objectBoundingBox" id="filter-7">
            <feMorphology radius="2" operator="dilate" in="SourceAlpha" result="shadowSpreadOuter1"></feMorphology>
            <feOffset dx="0" dy="0" in="shadowSpreadOuter1" result="shadowOffsetOuter1"></feOffset>
            <feMorphology radius="2" operator="erode" in="SourceAlpha" result="shadowInner"></feMorphology>
            <feOffset dx="0" dy="0" in="shadowInner" result="shadowInner"></feOffset>
            <feComposite in="shadowOffsetOuter1" in2="shadowInner" operator="out" result="shadowOffsetOuter1"></feComposite>
            <feGaussianBlur stdDeviation="1" in="shadowOffsetOuter1" result="shadowBlurOuter1"></feGaussianBlur>
            <feColorMatrix values="0 0 0 0 0.985703656   0 0 0 0 0.760833114   0 0 0 0 0.422863913  0 0 0 1 0" type="matrix" in="shadowBlurOuter1"></feColorMatrix>
        </filter>
        <path d="M71,13.6666898 L71,87.5334025" id="path-8"></path>
        <filter x="-350.0%" y="-9.5%" width="800.0%" height="119.0%" filterUnits="objectBoundingBox" id="filter-9">
            <feMorphology radius="2" operator="dilate" in="SourceAlpha" result="shadowSpreadOuter1"></feMorphology>
            <feOffset dx="0" dy="0" in="shadowSpreadOuter1" result="shadowOffsetOuter1"></feOffset>
            <feMorphology radius="2" operator="erode" in="SourceAlpha" result="shadowInner"></feMorphology>
            <feOffset dx="0" dy="0" in="shadowInner" result="shadowInner"></feOffset>
            <feComposite in="shadowOffsetOuter1" in2="shadowInner" operator="out" result="shadowOffsetOuter1"></feComposite>
            <feGaussianBlur stdDeviation="1" in="shadowOffsetOuter1" result="shadowBlurOuter1"></feGaussianBlur>
            <feColorMatrix values="0 0 0 0 0.985703656   0 0 0 0 0.760833114   0 0 0 0 0.422863913  0 0 0 1 0" type="matrix" in="shadowBlurOuter1"></feColorMatrix>
        </filter>
        <path d="M94.5253906,12.9741212 L83.5,87.5824822" id="path-10"></path>
        <filter x="-63.5%" y="-9.4%" width="227.0%" height="118.8%" filterUnits="objectBoundingBox" id="filter-11">
            <feMorphology radius="2" operator="dilate" in="SourceAlpha" result="shadowSpreadOuter1"></feMorphology>
            <feOffset dx="0" dy="0" in="shadowSpreadOuter1" result="shadowOffsetOuter1"></feOffset>
            <feMorphology radius="2" operator="erode" in="SourceAlpha" result="shadowInner"></feMorphology>
            <feOffset dx="0" dy="0" in="shadowInner" result="shadowInner"></feOffset>
            <feComposite in="shadowOffsetOuter1" in2="shadowInner" operator="out" result="shadowOffsetOuter1"></feComposite>
            <feGaussianBlur stdDeviation="1" in="shadowOffsetOuter1" result="shadowBlurOuter1"></feGaussianBlur>
            <feColorMatrix values="0 0 0 0 0.985703656   0 0 0 0 0.760833114   0 0 0 0 0.422863913  0 0 0 1 0" type="matrix" in="shadowBlurOuter1"></feColorMatrix>
        </filter>
        <path d="M115.992188,11.0454721 L97.203125,87.6297441" id="path-12"></path>
        <filter x="-37.3%" y="-9.1%" width="174.5%" height="118.3%" filterUnits="objectBoundingBox" id="filter-13">
            <feMorphology radius="2" operator="dilate" in="SourceAlpha" result="shadowSpreadOuter1"></feMorphology>
            <feOffset dx="0" dy="0" in="shadowSpreadOuter1" result="shadowOffsetOuter1"></feOffset>
            <feMorphology radius="2" operator="erode" in="SourceAlpha" result="shadowInner"></feMorphology>
            <feOffset dx="0" dy="0" in="shadowInner" result="shadowInner"></feOffset>
            <feComposite in="shadowOffsetOuter1" in2="shadowInner" operator="out" result="shadowOffsetOuter1"></feComposite>
            <feGaussianBlur stdDeviation="1" in="shadowOffsetOuter1" result="shadowBlurOuter1"></feGaussianBlur>
            <feColorMatrix values="0 0 0 0 0.985703656   0 0 0 0 0.760833114   0 0 0 0 0.422863913  0 0 0 1 0" type="matrix" in="shadowBlurOuter1"></feColorMatrix>
        </filter>
        <path d="M137.400391,8.11523438 L109.779297,87.026246" id="path-14"></path>
        <filter x="-25.3%" y="-8.9%" width="150.7%" height="117.7%" filterUnits="objectBoundingBox" id="filter-15">
            <feMorphology radius="2" operator="dilate" in="SourceAlpha" result="shadowSpreadOuter1"></feMorphology>
            <feOffset dx="0" dy="0" in="shadowSpreadOuter1" result="shadowOffsetOuter1"></feOffset>
            <feMorphology radius="2" operator="erode" in="SourceAlpha" result="shadowInner"></feMorphology>
            <feOffset dx="0" dy="0" in="shadowInner" result="shadowInner"></feOffset>
            <feComposite in="shadowOffsetOuter1" in2="shadowInner" operator="out" result="shadowOffsetOuter1"></feComposite>
            <feGaussianBlur stdDeviation="1" in="shadowOffsetOuter1" result="shadowBlurOuter1"></feGaussianBlur>
            <feColorMatrix values="0 0 0 0 0.985703656   0 0 0 0 0.760833114   0 0 0 0 0.422863913  0 0 0 1 0" type="matrix" in="shadowBlurOuter1"></feColorMatrix>
        </filter>
        <ellipse id="path-16" cx="39.9444444" cy="25.7680582" rx="35" ry="13"></ellipse>
        <path d="M37.4723251,31.2406551 C55.6977219,31.2406551 72.8409795,24.5078147 73.6860755,18.494644 C74.5311715,12.4814732 55.6977219,5.2406551 37.4723251,5.2406551 C19.2469284,5.2406551 4.47232514,11.0609534 4.47232514,18.2406551 C4.47232514,25.4203568 19.2469284,31.2406551 37.4723251,31.2406551 Z" id="path-17"></path>
        <ellipse id="path-18" cx="33.4780637" cy="21.5966127" rx="29.3340475" ry="10.8955034"></ellipse>
        <path d="M31.4061419,26.1832818 C46.681132,26.1832818 61.0491644,20.5403829 61.7574526,15.5006504 C62.4657408,10.460918 46.681132,4.39227502 31.4061419,4.39227502 C16.1311518,4.39227502 3.74832566,9.27035804 3.74832566,15.2877784 C3.74832566,21.3051987 16.1311518,26.1832818 31.4061419,26.1832818 Z" id="path-19"></path>
    </defs>
    <g id="roaches" stroke="none" stroke-width="1" fill="none" fill-rule="evenodd">
        <path d="M103.5,143 C145.197499,143 179,120.166522 179,92 C179,63.8334778 165.107422,26.4238281 103.5,26.4238281 C41.8925781,26.4238281 28,63.8334778 28,92 C28,120.166522 61.8025014,143 103.5,143 Z" id="cake" fill="#F6E1F4"></path>
        <path d="M102.987305,105.5625 C115.009895,105.5625 127.137857,96.4499065 136.933594,94.9804688 C148.899858,93.1854347 164.925351,99.0702961 171.855469,94.9804688 C178.794396,90.8854427 180.095703,84.0433629 180.095703,77.5351563 C180.095703,59.206068 156.351562,26.6367188 102.987305,26.6367188 C49.6230469,26.6367188 29.3476562,56.8164063 27.09375,75.4199219 C26.227126,82.5729493 20.8723769,95.7526945 29.3476562,100 C34.2474492,102.455485 56.0659581,90.983094 63.0722656,92.5026348 C68.2225368,93.619635 71.5389292,100.442962 77.57805,101.067837 C85.4591861,101.883306 94.0072228,105.5625 102.987305,105.5625 Z" id="icing" fill="#E621CE"></path>
        <g id="cup" transform="translate(29.000000, 100.000000)">
            <g id="Polygon">
                <use fill="#F1D4A7" fill-rule="evenodd" xlink:href="#path-1"></use>
                <path stroke="#F5C889" stroke-width="2" d="M1.60973215,1.3955083 L30.9482606,84.7743021 C31.9341767,87.5762319 34.5810822,89.4508497 37.551409,89.4508497 L111.512617,89.4508497 C114.455472,89.4508497 117.084082,87.6102259 118.090527,84.8448209 L148.459204,1.40086362 C124.16288,7.08923262 99.6912856,9.93359375 75.0458984,9.93359375 C50.3927817,9.93359375 25.9135668,7.08744819 1.60973215,1.3955083 Z"></path>
            </g>
            <g id="Line" stroke-linecap="round">
                <use fill="black" fill-opacity="1" filter="url(#filter-3)" xlink:href="#path-2"></use>
                <use stroke="#F5C889" stroke-width="2" xlink:href="#path-2"></use>
            </g>
            <g id="Line-Copy" stroke-linecap="round">
                <use fill="black" fill-opacity="1" filter="url(#filter-5)" xlink:href="#path-4"></use>
                <use stroke="#F5C889" stroke-width="2" xlink:href="#path-4"></use>
            </g>
            <g id="Line-Copy-2" stroke-linecap="round">
                <use fill="black" fill-opacity="1" filter="url(#filter-7)" xlink:href="#path-6"></use>
                <use stroke="#F5C889" stroke-width="2" xlink:href="#path-6"></use>
            </g>
            <g id="Line-Copy-3" stroke-linecap="round">
                <use fill="black" fill-opacity="1" filter="url(#filter-9)" xlink:href="#path-8"></use>
                <use stroke="#F5C889" stroke-width="2" xlink:href="#path-8"></use>
            </g>
            <g id="Line-Copy-4" stroke-linecap="round">
                <use fill="black" fill-opacity="1" filter="url(#filter-11)" xlink:href="#path-10"></use>
                <use stroke="#F5C889" stroke-width="2" xlink:href="#path-10"></use>
            </g>
            <g id="Line-Copy-5" stroke-linecap="round">
                <use fill="black" fill-opacity="1" filter="url(#filter-13)" xlink:href="#path-12"></use>
                <use stroke="#F5C889" stroke-width="2" xlink:href="#path-12"></use>
            </g>
            <g id="Line-Copy-6" stroke-linecap="round">
                <use fill="black" fill-opacity="1" filter="url(#filter-15)" xlink:href="#path-14"></use>
                <use stroke="#F5C889" stroke-width="2" xlink:href="#path-14"></use>
            </g>
        </g>
        <g id="roach" transform="translate(87.000000, 48.000000)">
            <g id="legs" transform="translate(10.000000, 0.000000)" stroke="#060605" stroke-linecap="round" stroke-width="2">
                <polyline id="Line-2" transform="translate(9.958559, 11.322962) rotate(-33.000000) translate(-9.958559, -11.322962) " points="3.95562922 19.1227671 4.68400551 12.5541533 8.47763874 5.82843227 15.9614886 3.52315774"></polyline>
                <polyline id="Line-2-Copy" transform="translate(19.580624, 9.863010) rotate(-20.000000) translate(-19.580624, -9.863010) " points="13.5776947 17.6628148 14.306071 11.094201 18.0997042 4.36847996 25.5835541 2.06320543"></polyline>
                <polyline id="Line-2-Copy-2" points="24 19 24.7283763 12.4313862 28.5220095 5.70566515 36.0058594 3.40039062"></polyline>
                <polyline id="Line-2-Copy-5" transform="translate(9.958559, 48.322962) scale(1, -1) rotate(-33.000000) translate(-9.958559, -48.322962) " points="3.95562922 56.1227671 4.68400551 49.5541533 8.47763874 42.8284323 15.9614886 40.5231577"></polyline>
                <polyline id="Line-2-Copy-4" transform="translate(19.580624, 46.863010) scale(1, -1) rotate(-20.000000) translate(-19.580624, -46.863010) " points="13.5776947 54.6628148 14.306071 48.094201 18.0997042 41.36848 25.5835541 39.0632054"></polyline>
                <polyline id="Line-2-Copy-3" transform="translate(30.002930, 48.200195) scale(1, -1) translate(-30.002930, -48.200195) " points="24 56 24.7283763 49.4313862 28.5220095 42.7056652 36.0058594 40.4003906"></polyline>
            </g>
            <g id="body" transform="translate(0.000000, 8.000000)">
                <ellipse id="Oval-6" fill="#090909" cx="6.5" cy="24" rx="6.5" ry="5"></ellipse>
                <ellipse fill="#913F2D" transform="translate(41.919135, 22.183982) rotate(-1.000000) translate(-41.919135, -22.183982) " cx="41.919135" cy="22.1839819" rx="37" ry="16.4501953"></ellipse>
                <g id="wing2" transform="translate(39.944444, 25.768058) rotate(1.000000) translate(-39.944444, -25.768058) ">
                    <use fill="#7C1E09" fill-rule="evenodd" xlink:href="#path-16"></use>
                    <ellipse stroke="#681B03" stroke-width="1" cx="39.9444444" cy="25.7680582" rx="34.5" ry="12.5"></ellipse>
                </g>
                <g id="wing1" transform="translate(39.092912, 18.240655) rotate(-8.000000) translate(-39.092912, -18.240655) ">
                    <use fill="#7C1E09" fill-rule="evenodd" xlink:href="#path-17"></use>
                    <path stroke="#681B03" stroke-width="1" d="M37.4723251,30.7406551 C54.8160979,30.7406551 72.3602292,24.335882 73.1909415,18.4250574 C73.9853251,12.7727242 55.0978228,5.7406551 37.4723251,5.7406551 C19.5017128,5.7406551 4.97232514,11.4643533 4.97232514,18.2406551 C4.97232514,25.0169569 19.5017128,30.7406551 37.4723251,30.7406551 Z"></path>
                </g>
            </g>
        </g>
        <g id="roach-copy" transform="translate(70.017494, 156.977234) rotate(111.000000) translate(-70.017494, -156.977234) translate(36.517494, 132.477234)">
            <g id="legs" transform="translate(8.381156, 0.000000)" stroke="#060605" stroke-linecap="round" stroke-width="2">
                <polyline id="Line-2" transform="translate(8.346424, 9.489952) rotate(-33.000000) translate(-8.346424, -9.489952) " points="3.31527473 16.0270903 3.92573829 10.5218323 7.10524165 4.88490026 13.3775733 2.95281362"></polyline>
                <polyline id="Line-2-Copy" transform="translate(16.410828, 8.266343) rotate(-20.000000) translate(-16.410828, -8.266343) " points="11.3796784 14.8034814 11.9901419 9.2982234 15.1696453 3.66129139 21.4419769 1.72920474"></polyline>
                <polyline id="Line-2-Copy-2" points="20.1147754 15.9241972 20.725239 10.4189392 23.9047424 4.78200722 30.177074 2.84992058"></polyline>
                <polyline id="Line-2-Copy-5" transform="translate(8.346424, 40.500231) scale(1, -1) rotate(-33.000000) translate(-8.346424, -40.500231) " points="3.31527473 47.0373691 3.92573829 41.5321111 7.10524165 35.8951791 13.3775733 33.9630924"></polyline>
                <polyline id="Line-2-Copy-4" transform="translate(16.410828, 39.276622) scale(1, -1) rotate(-20.000000) translate(-16.410828, -39.276622) " points="11.3796784 45.8137602 11.9901419 40.3085022 15.1696453 34.6715702 21.4419769 32.7394836"></polyline>
                <polyline id="Line-2-Copy-3" transform="translate(25.145925, 40.397338) scale(1, -1) translate(-25.145925, -40.397338) " points="20.1147754 46.934476 20.725239 41.4292181 23.9047424 35.792286 30.177074 33.8601994"></polyline>
            </g>
            <g id="body" transform="translate(0.000000, 6.704925)">
                <ellipse id="Oval-6" fill="#090909" cx="5.44775168" cy="20.1147754" rx="5.44775168" ry="4.19057822"></ellipse>
                <ellipse fill="#913F2D" transform="translate(35.133083, 18.592742) rotate(-1.000000) translate(-35.133083, -18.592742) " cx="35.1330828" cy="18.5927423" rx="31.0102788" ry="13.787166"></ellipse>
                <g id="wing2" transform="translate(33.478064, 21.596613) rotate(1.000000) translate(-33.478064, -21.596613) ">
                    <use fill="#7C1E09" fill-rule="evenodd" xlink:href="#path-18"></use>
                    <ellipse stroke="#681B03" stroke-width="1" cx="33.4780637" cy="21.5966127" rx="28.8340475" ry="10.3955034"></ellipse>
                </g>
                <g id="wing1" transform="translate(32.764381, 15.287778) rotate(-8.000000) translate(-32.764381, -15.287778) ">
                    <use fill="#7C1E09" fill-rule="evenodd" xlink:href="#path-19"></use>
                    <path stroke="#681B03" stroke-width="1" d="M31.4061419,25.6832818 C45.9046944,25.6832818 60.5741028,20.3279735 61.2623186,15.4310639 C61.9174202,10.7697733 46.1309909,4.89227502 31.4061419,4.89227502 C16.3859362,4.89227502 4.24832566,9.67375795 4.24832566,15.2877784 C4.24832566,20.9017988 16.3859362,25.6832818 31.4061419,25.6832818 Z"></path>
                </g>
            </g>
        </g>
    </g>
</svg>