<?xml version="1.0" encoding="UTF-8"?>
<svg width="200px" height="200px" viewBox="0 0 200 200" version="1.1" xmlns="http://www.w3.org/2000/svg" xmlns:xlink="http://www.w3.org/1999/xlink" style="background: #ED1414;">
    <!-- Generator: Sketch 49.1 (51147) - http://www.bohemiancoding.com/sketch -->
    <title>crack</title>
    <desc>Created with Sketch.</desc>
    <defs>
        <linearGradient x1="50%" y1="100%" x2="50%" y2="8.71165299%" id="linearGradient-1">
            <stop stop-color="#E6C28B" offset="0%"></stop>
            <stop stop-color="#AD9673" offset="100%"></stop>
        </linearGradient>
        <linearGradient x1="50%" y1="0%" x2="50%" y2="100%" id="linearGradient-2">
            <stop stop-color="#8493AC" offset="0%"></stop>
            <stop stop-color="#000000" stop-opacity="0.5" offset="100%"></stop>
        </linearGradient>
        <path d="M100.735434,192.200953 C91.167547,197.233907 79.1390121,200 65.470868,200 C30.6769288,200 2.47086802,177.614237 2.47086802,150 C2.47086802,137.684201 -0.447544671,114.465669 8.85563365,105.751953 C19.7086223,101.392699 49.3122459,104.910142 77.7352643,105.648258 C83.9882376,104.871229 102.972634,105.878693 123.797793,105.841013 C124.076408,105.81423 124.290582,105.784614 124.433759,105.751953 L124.433759,105.839536 C127.213657,105.831643 130.024276,105.804681 132.839844,105.751953 C158.858729,105.264693 185.314625,102.819562 192.615234,105.751953 C201.918413,114.465669 199,137.684201 199,150 C199,177.614237 170.793939,200 136,200 C122.331856,200 110.303321,197.233907 100.735434,192.200953 Z" id="path-3"></path>
        <linearGradient x1="50%" y1="100%" x2="50%" y2="8.71165299%" id="linearGradient-4">
            <stop stop-color="#59687F" offset="0%"></stop>
            <stop stop-color="#182336" offset="100%"></stop>
        </linearGradient>
        <rect id="path-5" x="97" y="109" width="7" height="21"></rect>
        <rect id="path-6" x="154" y="107" width="7" height="21"></rect>
        <rect id="path-7" x="40" y="107" width="7" height="21"></rect>
    </defs>
    <g id="crack" stroke="none" stroke-width="1" fill="none" fill-rule="evenodd">
        <path d="M200,92.5957031 C200,78.5712104 200,65.5393094 200,53.5 C200,0 152.257912,0 102,0 C51.7420878,0 -2.36033415e-13,0 -1.73240697e-13,53.5 C-1.46036381e-13,66.4505436 -1.66967288e-13,79.4824446 -2.36033415e-13,92.5957031 C18.2994792,106.055339 51.6328125,112.785156 100,112.785156 C148.367188,112.785156 181.700521,106.055339 200,92.5957031 Z" id="front" fill="#F5F2ED"></path>
        <path d="M102,151.78125 C130.45766,151.78125 167.600559,139.754352 186.234375,116.439453 C200.508982,98.5788595 200,71.558964 200,53.5 C200,0 152.257912,0 102,0 C51.7420878,0 9.95384331e-14,0 9.95384331e-14,53.5 C1.4089219e-13,72.9258154 3.21509266,101.038981 14.3105469,116.439453 C33.7727186,143.452915 69.9907032,151.78125 102,151.78125 Z" id="skin" fill="#E6C28B"></path>
        <path d="M100.5,84.2382812 C101.428007,93.2867179 102.3297,99.6200512 103.205078,103.238281 C104.080456,106.856511 106.813529,112.110418 111.404297,119 L92.0966797,119 C96.7006734,111.240385 99.3351135,105.986479 100,103.238281 C100.664887,100.490084 100.831553,94.1567504 100.5,84.2382812 Z" id="Triangle" fill="url(#linearGradient-1)" transform="translate(101.750488, 101.619141) scale(1, -1) translate(-101.750488, -101.619141) "></path>
        <path d="M200,92.5957031 C200,78.5712104 200,65.5393094 200,53.5 C200,31.4066966 195.939972,13.756329 182.841583,6.14259659 C164.221592,-4.68069135 131.503458,1.46993528e-13 102,1.46993528e-13 C74.1913068,1.46993528e-13 41.0854369,-2.92061654 21.3847858,6.14259659 C5.48097377,13.4590877 -2.01288967e-13,29.6026042 -1.73240697e-13,53.5 C-1.46036381e-13,66.4505436 -1.66967288e-13,79.4824446 -2.36033415e-13,92.5957031 C38.1250287,82.3164882 72.1250287,77.063233 102,76.8359375 C132.440764,76.6043373 165.107431,81.8575925 200,92.5957031 Z" id="shirtback" fill="#F5F2ED"></path>
        <path d="M100.7979,2 C113.500449,2 127.298662,1.42979329 127.298662,0 C120.942876,-3.48869742e-16 112.702549,9.00975365e-15 100,9.00975365e-15 C87.2974508,9.00975365e-15 81.1850249,3.58709042e-16 74.2971378,0 C74.2971378,1.42979329 88.0953504,2 100.7979,2 Z" id="Oval" fill="#E6C28B"></path>
        <g id="jeas">
            <use fill="#345183" xlink:href="#path-3"></use>
            <use fill-opacity="0.960000038" fill="url(#linearGradient-2)" xlink:href="#path-3"></use>
        </g>
        <path d="M100.5,123.654641 C100.943089,139.495851 101.715396,152.327866 102.81692,162.150685 C103.918444,171.973503 104.775326,181.796322 105.387564,191.619141 L98.1685791,191.619141 C98.7465553,179.119316 99.20221,169.296497 99.5355434,162.150685 C99.8688767,155.004872 100.190362,142.172858 100.5,123.654641 Z" id="Triangle-Copy" fill="url(#linearGradient-4)" transform="translate(101.778072, 157.636891) scale(1, -1) translate(-101.778072, -157.636891) "></path>
        <path d="M6.51953125,106.936849 C38.7032335,109.603516 70.2202691,110.936849 101.070638,110.936849 C131.921007,110.936849 162.771376,109.603516 193.621745,106.936849 C195.632006,108.697791 197.074498,110.72188 197.949219,113.009115 C198.82394,115.296349 199.1742,117.959978 199,121 C167.606036,123.666667 135.228187,125 101.866453,125 C68.5047187,125 35.1429843,123.666667 1.78125,121 C1.9241108,117.80761 2.20297365,115.463752 2.61783854,113.968424 C3.03270343,112.473097 4.33326767,110.129239 6.51953125,106.936849 Z" id="Rectangle" fill="#180F01"></path>
        <g id="Rectangle-8" transform="translate(100.500000, 119.500000) scale(-1, 1) translate(-100.500000, -119.500000) ">
            <use fill="#75849D" fill-rule="evenodd" xlink:href="#path-5"></use>
            <rect stroke="#23314A" stroke-width="1" x="97.5" y="109.5" width="6" height="20"></rect>
        </g>
        <g id="Rectangle-8-Copy-2" transform="translate(157.500000, 117.500000) scale(-1, 1) rotate(7.000000) translate(-157.500000, -117.500000) ">
            <use fill="#75849D" fill-rule="evenodd" xlink:href="#path-6"></use>
            <rect stroke="#23314A" stroke-width="1" x="154.5" y="107.5" width="6" height="20"></rect>
        </g>
        <g id="Rectangle-8-Copy" transform="translate(43.500000, 117.500000) scale(-1, 1) rotate(-7.000000) translate(-43.500000, -117.500000) ">
            <use fill="#75849D" fill-rule="evenodd" xlink:href="#path-7"></use>
            <rect stroke="#23314A" stroke-width="1" x="40.5" y="107.5" width="6" height="20"></rect>
        </g>
        <path d="M1.46511397,37.3992241 C4.07434134,35.2269903 6.68356872,33.0547565 9.29279609,30.8825227" id="Path-57" stroke="#959594" stroke-linecap="round"></path>
        <path d="M2.06423308,37.0609967 C4.3759197,37.8219308 6.68760633,38.5828648 8.99929295,39.3437989" id="Path-58" stroke="#959594" stroke-linecap="round"></path>
        <path d="M189.224196,30.7157384 C192.247745,32.5124745 195.271293,34.3092107 198.294841,36.1059468" id="Path-55" stroke="#959594" stroke-linecap="round"></path>
        <path d="M198.294841,36.055632 C195.42876,35.8459869 192.562678,35.6363418 189.696597,35.4266967" id="Path-56" stroke="#959594" stroke-linecap="round"></path>
    </g>
</svg>