<?xml version="1.0" encoding="UTF-8"?>
<svg width="200px" height="200px" viewBox="0 0 200 200" version="1.1" xmlns="http://www.w3.org/2000/svg" xmlns:xlink="http://www.w3.org/1999/xlink" style="background: #F9DBD9;">
    <!-- Generator: Sketch 49.1 (51147) - http://www.bohemiancoding.com/sketch -->
    <title>earwax</title>
    <desc>Created with Sketch.</desc>
    <defs>
        <linearGradient x1="50%" y1="37.996582%" x2="50%" y2="100%" id="linearGradient-1">
            <stop stop-color="#FFFFFF" stop-opacity="0.0908061594" offset="0%"></stop>
            <stop stop-color="#000000" stop-opacity="0.5" offset="100%"></stop>
        </linearGradient>
        <linearGradient x1="8.48170355%" y1="25.2310902%" x2="100%" y2="25.2310892%" id="linearGradient-2">
            <stop stop-color="#EFDCBF" offset="0%"></stop>
            <stop stop-color="#CBB99E" offset="100%"></stop>
        </linearGradient>
        <path d="M17,4 L46.0888672,4 C47.3788538,8.68466202 46.3948043,32.3955995 43.1367188,75.1328125 C39.8786332,117.870025 32.8626826,160.825755 22.0888672,204 L17,204 L17,4 Z" id="path-3"></path>
        <path d="M51.5081477,163.098539 C70.0367938,167.229853 78.5574082,97.0399484 78.8180506,88.9686928 C79.4793591,68.490105 86.1530539,51.6970984 81.569232,38.5637603 C76.2085636,23.2046402 67.2836808,22.8483983 62.3626775,22.9697957 C50.6067917,23.2598045 40.8676985,35.6979045 33.3750826,61.1725385 C31.5691555,67.312628 47.3238458,90.442323 49.9867401,110.61946 C51.2177274,119.94683 41.6461246,125.944562 41.1697721,133.847076 C40.2494491,149.114902 47.5022068,163.098539 51.5081477,163.098539 Z" id="path-4"></path>
        <filter x="-9.0%" y="-3.2%" width="118.0%" height="106.4%" filterUnits="objectBoundingBox" id="filter-5">
            <feMorphology radius="1" operator="erode" in="SourceAlpha" result="shadowSpreadInner1"></feMorphology>
            <feGaussianBlur stdDeviation="3.5" in="shadowSpreadInner1" result="shadowBlurInner1"></feGaussianBlur>
            <feOffset dx="0" dy="1" in="shadowBlurInner1" result="shadowOffsetInner1"></feOffset>
            <feComposite in="shadowOffsetInner1" in2="SourceAlpha" operator="arithmetic" k2="-1" k3="1" result="shadowInnerInner1"></feComposite>
            <feColorMatrix values="0 0 0 0 0   0 0 0 0 0   0 0 0 0 0  0 0 0 0.186848958 0" type="matrix" in="shadowInnerInner1"></feColorMatrix>
        </filter>
        <ellipse id="path-6" cx="106.5" cy="122.5" rx="29.5" ry="14.5"></ellipse>
        <filter x="-17.8%" y="-36.2%" width="135.6%" height="172.4%" filterUnits="objectBoundingBox" id="filter-7">
            <feMorphology radius="1.5" operator="dilate" in="SourceAlpha" result="shadowSpreadOuter1"></feMorphology>
            <feOffset dx="0" dy="0" in="shadowSpreadOuter1" result="shadowOffsetOuter1"></feOffset>
            <feGaussianBlur stdDeviation="2" in="shadowOffsetOuter1" result="shadowBlurOuter1"></feGaussianBlur>
            <feColorMatrix values="0 0 0 0 0.941176471   0 0 0 0 0.917647059   0 0 0 0 0.88627451  0 0 0 1 0" type="matrix" in="shadowBlurOuter1"></feColorMatrix>
        </filter>
        <ellipse id="path-8" cx="106.5" cy="122.5" rx="29.5" ry="14.5"></ellipse>
        <filter x="-12.7%" y="-25.9%" width="125.4%" height="151.7%" filterUnits="objectBoundingBox" id="filter-9">
            <feMorphology radius="0.5" operator="dilate" in="SourceAlpha" result="shadowSpreadOuter1"></feMorphology>
            <feOffset dx="0" dy="0" in="shadowSpreadOuter1" result="shadowOffsetOuter1"></feOffset>
            <feGaussianBlur stdDeviation="2" in="shadowOffsetOuter1" result="shadowBlurOuter1"></feGaussianBlur>
            <feColorMatrix values="0 0 0 0 0.976668793   0 0 0 0 0.964086629   0 0 0 0 0.964086629  0 0 0 0.5 0" type="matrix" in="shadowBlurOuter1"></feColorMatrix>
        </filter>
    </defs>
    <g id="earwax" stroke="none" stroke-width="1" fill="none" fill-rule="evenodd">
        <g id="ear" transform="translate(-17.000000, -4.000000)">
            <g id="Rectangle-6">
                <use fill="#EED9B9" xlink:href="#path-3"></use>
                <use fill="url(#linearGradient-1)" xlink:href="#path-3"></use>
                <use fill-opacity="0.870000005" fill="url(#linearGradient-2)" xlink:href="#path-3"></use>
            </g>
            <path d="M55.2556208,203.371603 C75.1759728,207.760963 89.152098,159.20964 89.152098,107.294873 C89.152098,79.0627755 88.8653061,41.5290576 81.9948625,22.0758245 C76.2315487,5.75736055 64.2946584,4.92857489 59.0040333,5.05755488 C46.3651509,5.36567781 34.2595659,21.325702 26.2041719,48.3915035 C21.6309972,63.7571875 23.3626818,84.2963248 23.3626818,103.096183 C29.053672,154.132393 43.6576411,203.371603 55.2556208,203.371603 Z" id="Oval" fill="#EFDCBF" transform="translate(56.096586, 104.347695) rotate(14.000000) translate(-56.096586, -104.347695) "></path>
            <g id="Oval-Copy" transform="translate(58.198800, 93.114993) rotate(14.000000) translate(-58.198800, -93.114993) ">
                <use fill-opacity="0.600000024" fill="#CBB99E" fill-rule="evenodd" xlink:href="#path-4"></use>
                <use fill="black" fill-opacity="1" filter="url(#filter-5)" xlink:href="#path-4"></use>
            </g>
            <path d="M47.4719902,59.4259567 C65.8692896,56.8446673 73.6413347,62.8587244 70.7881255,77.468128 C67.9349163,92.0775315 56.2767156,109.076004 35.8135233,128.463545" id="Line" stroke="#C5B7A1" stroke-width="6" stroke-linecap="round"></path>
        </g>
        <g id="hairs" transform="translate(28.000000, 75.000000)" stroke="#939292" stroke-linecap="round">
            <path d="M0.528070545,32.6383181 C23.3285045,23.1427828 14.538855,46.0972247 9.14011339,39.4317819 C4.71272551,33.9656005 15.4831662,28.4439272 19.7781171,30.0950421 C30.7445282,34.3108772 21.7430081,37.9628459 18.7936232,32.4833514" id="Path-49"></path>
            <path d="M3.72539685,19.9538432 C13.8842394,19.3506532 12.0770862,16.710178 11.7699883,25.1908039" id="Path-50"></path>
            <path d="M3.34025919,12.9096981 C3.34025919,2.78475099 -1.31811639,-1.57838736 9.5617138,0.79951135 C10.2181479,0.942981776 9.85645426,2.11065062 10.0038245,2.76622026" id="Path-51"></path>
            <path d="M6.75636192,10.7515598 C27.863782,10.7515598 5.16662564,-2.9786477 15.7900052,7.29443649" id="Path-52"></path>
            <path d="M3.29240184,23.830288 C4.00360091,23.966986 12.6889201,23.5753463 9.60273438,28.2468371 C9.15738724,28.9209492 7.81991395,28.9148672 7.18479909,28.4154773 C6.67896789,28.0177429 6.73399488,26.4271468 7.37394954,26.4943468" id="Path-53"></path>
            <path d="M2.91410094,16.3052905 C9.47320694,4.96705897 4.57856196,12.0566874 5.29785241,14.7259982 C5.49491313,15.4572971 7.07955526,16.5660702 7.28051377,15.8358328" id="Path-54"></path>
        </g>
        <g id="Oval-8">
            <use fill="black" fill-opacity="1" filter="url(#filter-7)" xlink:href="#path-6"></use>
            <use fill="#F0EAE2" fill-rule="evenodd" xlink:href="#path-6"></use>
        </g>
        <rect id="Rectangle-7" fill="#FFFFFF" x="107" y="118" width="100" height="9"></rect>
        <g id="Oval-8-Copy">
            <use fill="black" fill-opacity="1" filter="url(#filter-9)" xlink:href="#path-8"></use>
            <use fill="#F4F1EB" fill-rule="evenodd" xlink:href="#path-8"></use>
        </g>
        <path d="M89.9480353,122.5 L88.5796324,121.084726 C87.082014,121.738632 86.0598935,122.006459 85.5132709,121.888206 C84.9666484,121.769954 84.876194,121.261439 85.2419076,120.362663 L82.5930742,119.238025 C80.4760951,119.393204 79.2784037,119.354799 79,119.12281 C78.7215963,118.890821 79.3524025,118.45685 80.8924185,117.820898 L80.3064125,116.25 L80.8924185,114.679102 C79.3423246,114.051548 78.7115184,113.617577 79,113.37719 C79.2884816,113.136804 80.486173,113.098399 82.5930742,113.261975 L85.2419076,112.137337 C84.5213338,111.529726 84.6117882,111.021211 85.5132709,110.611794 C86.865495,109.997667 88.4922873,109.880663 89.9480353,110 C90.9185339,110.079558 91.6956984,110.468381 92.2795289,111.166469 L94.6110224,110 L95.9794253,111.415274 L99.0457868,110.611794 C101.143713,111.009123 102.401191,111.397023 102.818223,111.775494 C103.235254,112.153965 102.951174,112.649458 101.965983,113.261975 L103.666639,114.679102 C105.88888,114.386113 107,114.579778 107,115.260097 C107,115.940417 105.88888,116.794017 103.666639,117.820898 L101.965983,119.238025 C102.985449,120.037397 103.269529,120.532891 102.818223,120.724506 C102.366916,120.916121 101.199892,120.795507 99.3171501,120.362663 L95.9794253,121.084726 L94.6110224,122.5 L89.9480353,122.5 Z" id="Star" fill="#A9953C"></path>
        <path d="M95.3474251,137.382812 C92.4087575,137.185197 89.401101,135.107274 88.5811672,134.929894 C87.7612334,134.752515 88.7467968,133.616481 87.2545573,133.404351 C85.7623178,133.192221 83.346642,134.474397 82.9290365,134.126414 C82.511431,133.77843 80.3472581,132.615299 78.7786458,130.200137 C77.2100336,127.784975 76.8101185,125.913334 77.1178385,125.179025 C77.4255586,124.444715 80.5512472,124.98976 80.9589844,124.456962 C81.2308092,124.101764 82.7981379,124.717331 85.6609705,126.303663 L88.3098039,125.179025 C87.5892301,124.571414 87.6796845,124.062899 88.5811672,123.653482 C89.9333913,123.039355 91.5601836,122.922351 93.0159316,123.041688 C93.9864302,123.121246 94.7635947,123.510069 95.3474251,124.208157 L97.6789187,123.041688 L102.113683,123.653482 C104.211609,124.050811 105.469088,124.438711 105.886119,124.817182 C106.30315,125.195653 106.019071,125.691146 105.03388,126.303663 L106.734535,127.72079 C108.956776,127.427801 110.067896,127.621466 110.067896,128.301785 C110.067896,128.982105 108.956776,129.835705 106.734535,130.862586 L105.03388,132.279713 C105.744139,133.941659 105.521257,135.028984 104.365234,135.541688 C103.209212,136.054392 100.98044,136.054392 97.6789187,135.541688 C98.0837015,136.900848 97.3065369,137.514556 95.3474251,137.382812 Z" id="Star-Copy" fill="#8D7B27"></path>
    </g>
</svg>