<?xml version="1.0" encoding="UTF-8"?>
<svg width="200px" height="200px" viewBox="0 0 200 200" version="1.1" xmlns="http://www.w3.org/2000/svg" xmlns:xlink="http://www.w3.org/1999/xlink" style="background: #1F022F;">
    <!-- Generator: Sketch 49.1 (51147) - http://www.bohemiancoding.com/sketch -->
    <title>pox</title>
    <desc>Created with Sketch.</desc>
    <defs>
        <linearGradient x1="7.52534474%" y1="100%" x2="97.664921%" y2="100%" id="linearGradient-1">
            <stop stop-color="#E4BE84" offset="0%"></stop>
            <stop stop-color="#F1D3A5" offset="20.4562717%"></stop>
            <stop stop-color="#F1D3A5" offset="64.5363325%"></stop>
            <stop stop-color="#E4BE84" offset="100%"></stop>
        </linearGradient>
        <radialGradient cx="50%" cy="0%" fx="50%" fy="0%" r="100%" gradientTransform="translate(0.500000,0.000000),scale(0.857143,1.000000),rotate(90.000000),translate(-0.500000,-0.000000)" id="radialGradient-2">
            <stop stop-color="#E8C590" offset="0%"></stop>
            <stop stop-color="#F3D6AA" offset="100%"></stop>
        </radialGradient>
        <radialGradient cx="50%" cy="50%" fx="50%" fy="50%" r="50%" id="radialGradient-3">
            <stop stop-color="#DD5F5F" stop-opacity="0.497169384" offset="0%"></stop>
            <stop stop-color="#F3D6AA" offset="100%"></stop>
        </radialGradient>
        <circle id="path-4" cx="3.5" cy="3.5" r="3.5"></circle>
        <circle id="path-5" cx="4.5" cy="4.5" r="4.5"></circle>
        <circle id="path-6" cx="3.5" cy="3.5" r="3.5"></circle>
        <circle id="path-7" cx="3.5" cy="3.5" r="3.5"></circle>
        <circle id="path-8" cx="2.5" cy="2.5" r="2.5"></circle>
        <circle id="path-9" cx="4.5" cy="4.5" r="4.5"></circle>
        <circle id="path-10" cx="2" cy="2" r="2"></circle>
        <circle id="path-11" cx="3.5" cy="3.5" r="3.5"></circle>
        <circle id="path-12" cx="4.5" cy="4.5" r="4.5"></circle>
        <circle id="path-13" cx="2" cy="2" r="2"></circle>
        <circle id="path-14" cx="3.5" cy="3.5" r="3.5"></circle>
        <circle id="path-15" cx="3.5" cy="3.5" r="3.5"></circle>
        <circle id="path-16" cx="3.5" cy="3.5" r="3.5"></circle>
        <circle id="path-17" cx="3.5" cy="3.5" r="3.5"></circle>
        <path d="M17.4902344,13.1875 C25.7745056,13.1875 34.9433594,4.3921285 34.9433594,3.83984375 C34.9433594,3.50214535 30.3936717,1.27614638 25.6501289,0.374420728 C22.6359023,-0.198569877 19.5434007,1.359375 17.4902344,1.359375 C15.9443184,1.359375 13.8078428,-0.123143631 11.558653,0.622868473 C6.11963139,2.42688518 0.021484375,8.56729422 0.021484375,8.95800781 C0.021484375,9.51029256 9.20596313,13.1875 17.4902344,13.1875 Z" id="path-18"></path>
        <linearGradient x1="50%" y1="50%" x2="50%" y2="100%" id="linearGradient-19">
            <stop stop-color="#F3D6AA" offset="0%"></stop>
            <stop stop-color="#E8C48A" offset="100%"></stop>
        </linearGradient>
        <linearGradient x1="50%" y1="50%" x2="50%" y2="100%" id="linearGradient-20">
            <stop stop-color="#F3D6AA" offset="0%"></stop>
            <stop stop-color="#E9C68D" offset="100%"></stop>
        </linearGradient>
        <radialGradient cx="50%" cy="50%" fx="50%" fy="50%" r="50%" gradientTransform="translate(0.500000,0.500000),scale(0.933333,1.000000),rotate(90.000000),translate(-0.500000,-0.500000)" id="radialGradient-21">
            <stop stop-color="#F3D6AA" offset="0%"></stop>
            <stop stop-color="#E6D1B1" offset="100%"></stop>
        </radialGradient>
        <circle id="path-22" cx="12.5" cy="25.5" r="4.5"></circle>
        <circle id="path-23" cx="12.5" cy="25.5" r="1.5"></circle>
        <circle id="path-24" cx="4.5" cy="4.5" r="4.5"></circle>
        <circle id="path-25" cx="4.5" cy="4.5" r="1.5"></circle>
    </defs>
    <g id="pox" stroke="none" stroke-width="1" fill="none" fill-rule="evenodd">
        <g id="hair" transform="translate(-3.000000, -4.000000)" fill="#CE7715">
            <path d="M96.25,179.271484 C110.94405,179.271484 140.144277,185.021452 150.396484,175.648438 C140.541016,172.197266 157,131.118898 157,104 C157,57.0557963 128.793939,19 94,19 C59.2060608,19 31,57.0557963 31,104 C31,132.560658 49.8222656,152.509766 40.8847656,171.451172 C51.6112553,179.556219 82.6245488,179.271484 96.25,179.271484 Z" id="Oval-2"></path>
            <path d="M147.079677,130.905526 C182.364695,130.905526 210.968854,118.666396 210.968854,103.568663 C210.968854,88.4709305 176.805625,65.9964558 141.520607,65.9964558 C106.235588,65.9964558 87.1605616,101.803253 51.2430985,97.308739 C53.9213174,103.472426 70.3694784,108.453065 87.3274597,115.840406 C106.599218,124.235689 128.310446,130.905526 147.079677,130.905526 Z" id="Oval-10-Copy" transform="translate(131.105976, 98.450991) rotate(-107.000000) translate(-131.105976, -98.450991) "></path>
            <path d="M85.1973497,130.354157 C120.482368,130.354157 149.086527,119.040671 149.086527,105.08478 C149.086527,91.1288879 106.727187,54.2494826 71.4421691,54.2494826 C54.0407855,54.2494826 46.7271924,55.8394254 28.4331027,64.4391991 C20.6694083,68.088794 15.9077894,80.9142034 7.3442784,85.8120353 C-4.83018045,92.7751201 -13.0345048,79.532174 -17.6390472,76.629216 C-29.915496,87.5443149 49.9123314,130.354157 85.1973497,130.354157 Z" id="Oval-10-Copy-2" transform="translate(65.088232, 92.301820) rotate(-70.000000) translate(-65.088232, -92.301820) "></path>
        </g>
        <g id="neck" transform="translate(20.000000, 140.000000)">
            <path d="M38,0 L108,0 C105.56901,12.858941 104.353516,22.858941 104.353516,30 C104.353516,37.141059 124.085286,47.141059 163.548828,60 L0.947265625,60 C30.3092448,46.7886285 44.9902344,36.7886285 44.9902344,30 C44.9902344,23.2113715 42.6601563,13.2113715 38,0 Z" id="Rectangle-Copy-2" fill="url(#linearGradient-1)"></path>
            <path d="M38,0 L108,0 C105.56901,12.858941 104.353516,22.858941 104.353516,30 C104.353516,37.141059 105.56901,47.141059 108,60 L38,60 C42.6601562,46.7886285 44.9902344,36.7886285 44.9902344,30 C44.9902344,23.2113715 42.6601562,13.2113715 38,0 Z" id="Rectangle" fill="url(#radialGradient-2)"></path>
            <path d="M38,0 L108,0 C105.56901,12.858941 104.353516,22.858941 104.353516,30 C104.353516,37.141059 105.56901,47.141059 108,60 L38,60 C42.6601562,46.7886285 44.9902344,36.7886285 44.9902344,30 C44.9902344,23.2113715 42.6601562,13.2113715 38,0 Z" id="Rectangle-Copy" fill="url(#radialGradient-2)"></path>
            <g id="pox-copy" transform="translate(86.000000, 35.000000)">
                <g id="Oval-6">
                    <use fill="#E5C99D" xlink:href="#path-4"></use>
                    <use fill="url(#radialGradient-3)" xlink:href="#path-4"></use>
                </g>
                <circle id="Oval-7" fill="#F1EFB2" cx="3.5" cy="3.5" r="1.5"></circle>
            </g>
            <g id="pox-copy-12" transform="translate(43.000000, 42.000000)">
                <g id="Oval-6">
                    <use fill="#E5C99D" xlink:href="#path-5"></use>
                    <use fill="url(#radialGradient-3)" xlink:href="#path-5"></use>
                </g>
                <circle id="Oval-7" fill="#F1EFB2" cx="4.5" cy="4.5" r="1.92857143"></circle>
            </g>
            <g id="pox-copy-13" transform="translate(124.000000, 51.000000)">
                <g id="Oval-6">
                    <use fill="#E5C99D" xlink:href="#path-6"></use>
                    <use fill="url(#radialGradient-3)" xlink:href="#path-6"></use>
                </g>
                <circle id="Oval-7" fill="#F1EFB2" cx="3.5" cy="3.5" r="1.5"></circle>
            </g>
        </g>
        <g id="head" transform="translate(43.000000, 21.000000)">
            <path d="M48.6766367,148.859715 C72.2198367,148.859715 96.8135282,114.151693 96.8135282,74.6633337 C96.8135282,35.1749741 91.6851219,-3.38052784 47.5,0.32666749 C3.31487815,4.03386282 0.539745104,39.5116404 0.539745104,79 C0.539745104,118.48836 27.9659586,148.859715 48.6766367,148.859715 Z" id="face" fill="#F3D6AA"></path>
            <g id="pox" transform="translate(68.000000, 101.000000)">
                <g id="Oval-6">
                    <use fill="#E5C99D" xlink:href="#path-7"></use>
                    <use fill="url(#radialGradient-3)" xlink:href="#path-7"></use>
                </g>
                <circle id="Oval-7" fill="#F1EFB2" cx="3.5" cy="3.5" r="1.5"></circle>
            </g>
            <g id="pox-copy-2" transform="translate(75.000000, 93.000000)">
                <g id="Oval-6">
                    <use fill="#E5C99D" xlink:href="#path-8"></use>
                    <use fill="url(#radialGradient-3)" xlink:href="#path-8"></use>
                </g>
                <circle id="Oval-7" fill="#F1EFB2" cx="2.5" cy="2.5" r="1.07142857"></circle>
            </g>
            <g id="pox-copy-3" transform="translate(20.000000, 93.000000)">
                <g id="Oval-6">
                    <use fill="#E5C99D" xlink:href="#path-9"></use>
                    <use fill="url(#radialGradient-3)" xlink:href="#path-9"></use>
                </g>
                <circle id="Oval-7" fill="#F1EFB2" cx="4.5" cy="4.5" r="1.92857143"></circle>
            </g>
            <g id="pox-copy-4" transform="translate(17.000000, 107.000000)">
                <g id="Oval-6">
                    <use fill="#E5C99D" xlink:href="#path-10"></use>
                    <use fill="url(#radialGradient-3)" xlink:href="#path-10"></use>
                </g>
                <circle id="Oval-7" fill="#F1EFB2" cx="2" cy="2" r="1"></circle>
            </g>
            <g id="pox-copy-5" transform="translate(9.000000, 91.000000)">
                <g id="Oval-6">
                    <use fill="#E5C99D" xlink:href="#path-11"></use>
                    <use fill="url(#radialGradient-3)" xlink:href="#path-11"></use>
                </g>
                <circle id="Oval-7" fill="#F1EFB2" cx="3.5" cy="3.5" r="1.5"></circle>
            </g>
            <g id="pox-copy-6" transform="translate(50.000000, 46.000000)">
                <g id="Oval-6">
                    <use fill="#E5C99D" xlink:href="#path-12"></use>
                    <use fill="url(#radialGradient-3)" xlink:href="#path-12"></use>
                </g>
                <circle id="Oval-7" fill="#F1EFB2" cx="4.5" cy="4.5" r="1.92857143"></circle>
            </g>
            <g id="pox-copy-7" transform="translate(68.000000, 35.000000)">
                <g id="Oval-6">
                    <use fill="#E5C99D" xlink:href="#path-13"></use>
                    <use fill="url(#radialGradient-3)" xlink:href="#path-13"></use>
                </g>
                <circle id="Oval-7" fill="#F1EFB2" cx="2" cy="2" r="1"></circle>
            </g>
            <g id="pox-copy-8" transform="translate(68.000000, 122.000000)">
                <g id="Oval-6">
                    <use fill="#E5C99D" xlink:href="#path-14"></use>
                    <use fill="url(#radialGradient-3)" xlink:href="#path-14"></use>
                </g>
                <circle id="Oval-7" fill="#F1EFB2" cx="3.5" cy="3.5" r="1.5"></circle>
            </g>
            <g id="pox-copy-9" transform="translate(50.000000, 135.000000)">
                <g id="Oval-6">
                    <use fill="#E5C99D" xlink:href="#path-15"></use>
                    <use fill="url(#radialGradient-3)" xlink:href="#path-15"></use>
                </g>
                <circle id="Oval-7" fill="#F1EFB2" cx="3.5" cy="3.5" r="1.5"></circle>
            </g>
            <g id="pox-copy-10" transform="translate(42.000000, 137.000000)">
                <g id="Oval-6">
                    <use fill="#E5C99D" xlink:href="#path-16"></use>
                    <use fill="url(#radialGradient-3)" xlink:href="#path-16"></use>
                </g>
                <circle id="Oval-7" fill="#F1EFB2" cx="3.5" cy="3.5" r="1.5"></circle>
            </g>
            <g id="pox-copy-11" transform="translate(42.000000, 137.000000)">
                <g id="Oval-6">
                    <use fill="#E5C99D" xlink:href="#path-17"></use>
                    <use fill="url(#radialGradient-3)" xlink:href="#path-17"></use>
                </g>
                <circle id="Oval-7" fill="#F1EFB2" cx="3.5" cy="3.5" r="1.5"></circle>
            </g>
            <g id="mouth" transform="translate(31.000000, 115.000000)">
                <g id="Oval-5">
                    <use fill="#EE6178" fill-rule="evenodd" xlink:href="#path-18"></use>
                    <path stroke="#EC8092" stroke-width="1" d="M34.5317729,4.10285599 C34.5326953,4.10381119 34.5336212,4.10476124 34.5345506,4.10570657 C34.5320281,4.1031407 34.5284329,4.09982224 34.5238186,4.09582816 Z M34.2823657,3.92945621 C34.1825209,3.86799349 34.06093,3.79832062 33.9208368,3.72269431 C33.4057465,3.44463392 32.6924286,3.11286906 31.8854435,2.78108263 C29.8933168,1.96203322 27.6544109,1.26437941 25.5567534,0.865624358 C25.3642308,0.829026702 25.1680396,0.801189378 24.9678096,0.78178818 C23.7469638,0.663494878 22.6035504,0.826541581 20.6806526,1.28970048 C18.6327731,1.78296311 18.2546048,1.859375 17.4902344,1.859375 C16.9134426,1.859375 16.6170182,1.78468156 15.2393461,1.36442715 C13.6301879,0.873558651 12.7212787,0.764033872 11.7160607,1.09744493 C9.37782415,1.8729921 6.69677439,3.5488604 4.06766652,5.70690389 C3.06848581,6.52705868 2.13828248,7.37029962 1.41342437,8.0974859 C1.11231703,8.39956038 0.862857061,8.66590638 0.689041931,8.86914712 C0.941961485,9.0135687 1.31714697,9.1936367 1.78213997,9.39193776 C2.84183022,9.84385361 4.25209685,10.3438553 5.791458,10.8005079 C9.72508623,11.9674216 13.8536295,12.6875 17.4902344,12.6875 C21.0225099,12.6875 25.0427559,11.0329883 29.0418184,8.30760488 C30.5289579,7.29411092 31.922629,6.18726997 33.0443102,5.16402077 C33.5048137,4.74392836 33.8923614,4.36146167 34.1633641,4.06358857 C34.2067905,4.01585631 34.2465518,3.97101204 34.2823657,3.92945621 Z M0.508059361,9.09626418 C0.506420274,9.09860652 0.504826058,9.10090416 0.503277036,9.10315658 C0.506143755,9.0989881 0.508598201,9.09532933 0.510689354,9.09115964 Z M0.452868249,8.71772352 C0.450329497,8.71544153 0.447767641,8.71324993 0.445191617,8.71112081 C0.452776764,8.71739004 0.461453927,8.7241629 0.471190098,8.73140596 Z"></path>
                </g>
                <path d="M8.13476562,6.31835938 C22.7716972,7.26069983 17.2037701,9.42852945 25.8769531,3.76367188" id="Path-65" stroke="#D8596F" stroke-linecap="round"></path>
            </g>
            <g id="nose" transform="translate(37.000000, 89.000000)">
                <path d="M10.5,19.5 C16.7415862,19.5 20.5,17.5995826 20.5,14 C20.5,8.93742556 15.2811582,1.47460938 10.5,1.47460938 C5.71884182,1.47460938 0.5,8.93742556 0.5,14 C0.5,17.5995826 4.2584138,19.5 10.5,19.5 Z" id="Oval-3" stroke="url(#linearGradient-19)"></path>
                <ellipse id="Oval-4" stroke="url(#linearGradient-20)" cx="10.5" cy="11.5" rx="6" ry="8"></ellipse>
            </g>
            <g id="reye" transform="translate(57.000000, 48.000000)">
                <ellipse id="darkeye" fill="url(#radialGradient-21)" cx="15" cy="24" rx="15" ry="14"></ellipse>
                <path d="M14.1045125,31 C8.14861994,31 1,29.6568542 1,28 C1,26.3431458 5.54409885,19.9854919 14.1045125,19.9854919 C22.6649261,19.9854919 27.7142934,23.8358917 27.7142934,25.4927459 C27.7142934,27.1496002 20.060405,31 14.1045125,31 Z" id="whites" stroke="#E8D0AC" fill="#F1EFB2"></path>
                <g id="iris">
                    <use fill="#8BE6D3" fill-rule="evenodd" xlink:href="#path-22"></use>
                    <circle stroke="#A6D4CB" stroke-width="1" cx="12.5" cy="25.5" r="4"></circle>
                </g>
                <g id="pupil">
                    <use fill="#000000" fill-rule="evenodd" xlink:href="#path-23"></use>
                    <circle stroke="#060605" stroke-width="1" cx="12.5" cy="25.5" r="1"></circle>
                </g>
                <path d="M0.501027305,14.3694498 C0.173933286,13.771834 0,13.1454383 0,12.5 C0,10.3710326 1.89239274,5.92090172 4.93170386,4.04216641 C7.80570016,2.26561965 13.7978942,0.524463398 18,1 C26.836556,2 31,8.35786438 32,12.5 C32,13.1454383 31.8260667,13.771834 31.4989727,14.3694498 C29.7269229,10.2434754 23.459621,5 16,5 C8.54037903,5 2.27307707,10.2434754 0.501027305,14.3694498 Z" id="Combined-Shape" fill="#B56409"></path>
            </g>
            <g id="leye" transform="translate(10.000000, 52.000000)">
                <ellipse id="darkeye" fill="url(#radialGradient-21)" cx="17" cy="20" rx="15" ry="14"></ellipse>
                <path d="M16.1045125,27 C10.1486199,27 3,25.6568542 3,24 C3,22.3431458 7.54409885,15.9854919 16.1045125,15.9854919 C24.6649261,15.9854919 29.7142934,19.8358917 29.7142934,21.4927459 C29.7142934,23.1496002 22.060405,27 16.1045125,27 Z" id="whites" stroke="#E8D0AC" fill="#F1EFB2" transform="translate(16.357147, 21.492746) scale(-1, 1) translate(-16.357147, -21.492746) "></path>
                <g id="Group" transform="translate(13.000000, 17.000000)">
                    <g id="iris">
                        <use fill="#8BE6D3" fill-rule="evenodd" xlink:href="#path-24"></use>
                        <circle stroke="#A6D4CB" stroke-width="1" cx="4.5" cy="4.5" r="4"></circle>
                    </g>
                    <g id="pupil">
                        <use fill="#000000" fill-rule="evenodd" xlink:href="#path-25"></use>
                        <circle stroke="#060605" stroke-width="1" cx="4.5" cy="4.5" r="1"></circle>
                    </g>
                </g>
                <path d="M0.517350941,13.3990217 C0.179723092,12.7925092 0,12.1560929 0,11.5 C0,9.37103258 1.89239274,4.92090172 4.93170386,3.04216641 C7.80570016,1.26561965 13.7978942,0.524463398 18,1 C26.836556,2 31,7.35786438 32,11.5 C32,12.1560929 31.8202769,12.7925092 31.4826491,13.3990217 C29.6887184,9.50327063 23.4368912,5 16,5 C8.5631088,5 2.31128159,9.50327063 0.517350941,13.3990217 Z" id="Combined-Shape-Copy" fill="#B56409" transform="translate(16.000000, 7.129121) scale(-1, 1) translate(-16.000000, -7.129121) "></path>
            </g>
        </g>
        <path d="M79.4532269,68.4625636 C100.71619,68.4625636 117.953227,59.7321163 117.953227,48.9625636 C117.953227,38.193011 97.3662607,22.1614622 76.1032979,22.1614622 C54.840335,22.1614622 23.7019884,30.4345296 23.7019884,41.2040822 C23.7019884,51.9736348 58.190264,68.4625636 79.4532269,68.4625636 Z" id="bangs" fill="#CE7715" transform="translate(70.827608, 45.312013) rotate(-41.000000) translate(-70.827608, -45.312013) "></path>
    </g>
</svg>