<?xml version="1.0" encoding="UTF-8"?>
<svg width="200px" height="200px" viewBox="0 0 200 200" version="1.1" xmlns="http://www.w3.org/2000/svg" xmlns:xlink="http://www.w3.org/1999/xlink" style="background: #1F022F;">
    <!-- Generator: Sketch 49.1 (51147) - http://www.bohemiancoding.com/sketch -->
    <title>toenails</title>
    <desc>Created with Sketch.</desc>
    <defs>
        <path d="M123.208252,119.795409 C123.831543,119.985416 124.479313,120.089844 125.20825,120.089844 C125.854773,120.089844 126.583501,119.909037 127.367352,119.627898 C128.179253,107.289768 128.585203,98.0225262 128.585203,91.8261719 C128.585203,84.1425781 125.20825,78.5273437 125.20825,70.84375 C125.20825,49.0703125 151.20825,56.046875 151.20825,70.84375 C151.20825,83.3382502 151.208252,102.169183 151.208255,127.336549 C151.535271,127.464582 151.868352,127.570208 152.20825,127.650391 L152.20825,89.1469938 C152.20825,84.7879424 155.698037,81.2312301 160.056302,81.1484364 C168.00565,80.9974233 173.952784,84.5566684 177.897703,91.8261719 C182.740844,100.750873 184.423481,115.004771 182.945613,134.587866 C182.90891,135.074212 182.828226,135.552008 182.706436,136.016188 C185.22327,140.932706 186.859942,144.812075 187.616453,147.654297 C188.492056,150.943945 192.355988,168.501237 199.20825,200.326172 L32.5109847,200.326172 C26.8504846,189.639952 23.4383752,181.298806 22.2746565,175.302734 C21.1350775,169.431042 19.2060383,148.768128 16.4875391,113.313994 C13.4250445,101.086629 11.8937972,91.6649068 11.8937972,85.0488281 C11.8937972,73.3632813 8.40861115,53.5455287 15.2023909,41.7636719 C21.9961707,29.9818151 27.4348128,24.4609375 39.8215315,24.4609375 C52.2082503,24.4609375 55.9209527,28.6368066 62.7141097,39.0507812 C62.8017414,39.1851215 62.8883054,39.3196851 62.973814,39.4544629 C63.1003984,35.6082879 63.3790647,33.0010711 63.8098128,31.6328125 C65.0942778,27.5527473 72.2705807,23 78.3972245,23 C87.9035628,23 90.4612417,29.3300652 92.2082503,33.6875 C93.7486092,37.5295038 90.5949976,53.917876 92.2082503,76.6582031 C92.554132,81.5337339 94.3425954,94.3967546 97.5736404,115.247265 C97.7125242,115.249213 97.8498198,115.250308 97.9855691,115.25059 C98.8322058,99.1585591 99.2397662,88.183753 99.2082503,82.3261719 C99.1449438,70.5599481 98.2691818,60.6854875 97.2082503,52.7128906 C97.2082503,45.1398249 100.457048,40.3513731 104.657821,38.2334015 C112.340828,34.3597361 123.20825,39.4189872 123.20825,52.7128906 C123.20825,66.4515754 123.208251,88.8124118 123.208252,119.7954 Z M64.7280816,114.575432 C64.9490004,114.649679 65.1674074,114.719266 65.3832334,114.783789 C65.0706993,106.589502 64.7937857,99.3737944 64.5524928,93.1366665 C63.5055635,96.1463226 62.7141097,98.5310979 62.7141097,100.326172 C62.7141097,104.860995 63.3854336,109.610748 64.7280816,114.575432 Z" id="path-1"></path>
        <radialGradient cx="45.2884227%" cy="100%" fx="45.2884227%" fy="100%" r="46.1305132%" gradientTransform="translate(0.452884,1.000000),scale(0.947180,1.000000),rotate(90.000000),scale(1.000000,1.495689),translate(-0.452884,-1.000000)" id="radialGradient-2">
            <stop stop-color="#450235" stop-opacity="0.5" offset="0%"></stop>
            <stop stop-color="#FFFFFF" stop-opacity="0.5" offset="100%"></stop>
        </radialGradient>
        <path d="M25,38 L55.6171875,38 L53.5986684,58.823887 C53.2463363,62.4586923 50.4772939,65.3935483 46.8690943,65.9564362 L40.1796875,67 L31.9549912,65.916355 C27.975045,65.3919771 25,61.9992436 25,57.9849014 L25,38 Z" id="path-3"></path>
        <radialGradient cx="50%" cy="50%" fx="50%" fy="50%" r="387.580792%" gradientTransform="translate(0.500000,0.500000),scale(1.000000,0.258011),rotate(90.000000),translate(-0.500000,-0.500000)" id="radialGradient-4">
            <stop stop-color="#D09494" stop-opacity="0.5" offset="0%"></stop>
            <stop stop-color="#F10909" stop-opacity="0.5" offset="100%"></stop>
        </radialGradient>
        <path d="M24.4986749,57.2532292 C25.6032444,57.2532292 27,51.9705627 27,47 C27,42.0294373 24.1045695,37.8639179 23,37.8639179 C21.8954305,37.8639179 22,42.0294373 22,47 C22,51.9705627 23.3941054,57.2532292 24.4986749,57.2532292 Z" id="path-5"></path>
        <radialGradient cx="50%" cy="148.922509%" fx="50%" fy="148.922509%" r="100%" gradientTransform="translate(0.500000,1.489225),scale(0.947180,1.000000),rotate(90.000000),translate(-0.500000,-1.489225)" id="radialGradient-6">
            <stop stop-color="#450235" stop-opacity="0.5" offset="0%"></stop>
            <stop stop-color="#FFFFFF" stop-opacity="0.5" offset="100%"></stop>
        </radialGradient>
        <path d="M71,29 C73.1366938,30.3333333 75.9283605,31 79.375,31 C82.8216395,31 85.66072,30.3333333 87.8922414,29 L87.0469442,37.7204388 C86.6946121,41.355244 83.9255697,44.2901 80.3173702,44.852988 L79.375,45 L77.9549912,44.8129067 C73.975045,44.2885288 71,40.8957954 71,36.8814531 L71,29 Z" id="path-7"></path>
        <radialGradient cx="50%" cy="148.922509%" fx="50%" fy="148.922509%" r="103.571429%" gradientTransform="translate(0.500000,1.489225),scale(1.000000,0.965517),rotate(90.000000),translate(-0.500000,-1.489225)" id="radialGradient-8">
            <stop stop-color="#450235" stop-opacity="0.5" offset="0%"></stop>
            <stop stop-color="#FFFFFF" stop-opacity="0.5" offset="100%"></stop>
        </radialGradient>
        <path d="M103,43 C105.279963,44.3333333 107.916866,45 110.91071,45 C113.904554,45 116.417076,44.3333333 118.448276,43 L118.448276,51.0478094 C118.448276,54.9899945 115.576454,58.3445629 111.681381,58.9522039 L111.375,59 L109.954991,58.8129067 C105.975045,58.2885288 103,54.8957954 103,50.8814531 L103,43 Z" id="path-9"></path>
        <radialGradient cx="59.4812572%" cy="158.716665%" fx="59.4812572%" fy="158.716665%" r="100%" gradientTransform="translate(0.594813,1.587167),scale(0.964286,1.000000),rotate(90.000000),translate(-0.594813,-1.587167)" id="radialGradient-10">
            <stop stop-color="#450235" stop-opacity="0.5" offset="0%"></stop>
            <stop stop-color="#FFFFFF" stop-opacity="0.5" offset="100%"></stop>
        </radialGradient>
        <path d="M130,65.3117551 C131.225823,66.4616502 133.350906,66.8103092 136.375249,66.3577319 C139.399591,65.9051546 142.423933,64.7859106 145.448276,63 L145.448276,69.6180108 C145.448276,73.1388371 143.14642,76.2457833 139.778226,77.2712019 L137.724138,77.8965517 L137.724138,77.8965517 C133.458214,77.8965517 130,74.4383374 130,70.1724138 L130,65.3117551 Z" id="path-11"></path>
        <radialGradient cx="38.7344003%" cy="162.038591%" fx="38.7344003%" fy="162.038591%" r="108.150312%" gradientTransform="translate(0.387344,1.620386),scale(1.000000,0.924639),rotate(90.000000),translate(-0.387344,-1.620386)" id="radialGradient-12">
            <stop stop-color="#450235" stop-opacity="0.5" offset="0%"></stop>
            <stop stop-color="#FFFFFF" stop-opacity="0.5" offset="100%"></stop>
        </radialGradient>
        <path d="M160.703731,88.398965 C163.416181,90.9097999 165.781639,92.1652174 167.800104,92.1652174 C169.818569,92.1652174 171.693333,91.5252567 173.424396,90.2453353 L173.307999,95.5360007 C173.228078,99.1686893 170.377207,102.133819 166.750461,102.356355 L166.750461,102.356355 C163.187261,102.150464 160.430321,99.1542433 160.521023,95.5862529 L160.703731,88.398965 Z" id="path-13"></path>
    </defs>
    <g id="toenails" stroke="none" stroke-width="1" fill="none" fill-rule="evenodd">
        <g id="Combined-Shape">
            <use fill="#E6C28B" fill-rule="evenodd" xlink:href="#path-1"></use>
            <path stroke="#B99C6C" stroke-width="1" d="M32.8121575,199.826172 L198.589127,199.826172 C191.822063,168.401851 188.000059,151.039418 187.133276,147.782904 C186.387639,144.981536 184.763404,141.131647 182.261364,136.244027 L182.174338,136.074025 L182.222806,135.889295 C182.337639,135.451631 182.412814,135.003646 182.447031,134.55024 C183.918322,115.054284 182.24593,100.88717 177.458242,92.0646533 C173.601322,84.9573123 167.826054,81.5009252 160.065799,81.6483462 C155.979926,81.7259653 152.70825,85.0603831 152.70825,89.1469938 L152.70825,128.282066 L152.09345,128.137033 C151.735374,128.052562 151.379913,127.940712 151.025969,127.802137 L150.708255,127.677746 L150.708255,127.336549 C150.708251,92.7537168 150.708251,92.7537168 150.70825,70.84375 C150.70825,64.1845042 144.963432,58.5406695 138.141764,57.6254426 C130.919285,56.6564412 125.70825,61.3097842 125.70825,70.84375 C125.70825,73.991173 126.124821,76.2635598 127.381347,81.2119021 C128.657536,86.2376809 129.085203,88.5706 129.085203,91.8261719 C129.085203,98.0357545 128.678833,107.312583 127.866273,119.660729 L127.844746,119.987861 L127.536155,120.098542 C126.634475,120.421941 125.880105,120.589844 125.20825,120.589844 C124.452366,120.589844 123.754954,120.484785 123.062454,120.27368 L122.708252,120.165704 L122.708252,119.7954 C122.708251,77.6319936 122.708251,77.6319936 122.70825,52.7128906 C122.70825,40.8617067 113.148637,34.5124058 104.882922,38.679865 C100.449321,40.9152249 97.7082503,45.8519397 97.7038812,52.6469359 C98.9405173,61.939903 99.6510667,71.6966188 99.7082431,82.3234817 C99.7398269,88.1936941 99.3320079,99.1754648 98.4848785,115.27686 L98.4599026,115.751577 L97.9845295,115.750589 C97.8459449,115.750301 97.7066599,115.74918 97.566628,115.747216 L97.1442281,115.741291 L97.0795377,115.323832 C93.8459413,94.4568576 92.0567863,81.5888623 91.7095038,76.6935854 C91.0269427,67.0722397 91.1082418,58.7965319 91.6907393,47.8882336 C92.307323,36.3416092 92.3288319,35.331869 91.7441603,33.8735657 C90.3661081,30.4363918 89.4779263,28.7465726 87.8521294,27.0563286 C85.6318366,24.7480227 82.6059446,23.5 78.3972245,23.5 C72.6427012,23.5 65.539544,27.8034521 64.2867374,31.7829554 C63.8737765,33.0947136 63.5986893,35.6684444 63.4735434,39.4709099 L63.4202104,41.0913928 L62.551616,39.7223227 C62.467073,39.5890669 62.3816459,39.4562776 62.2953308,39.3239556 C54.6450576,27.5960135 50.9091517,24.9609375 39.8215315,24.9609375 C28.5580372,24.9609375 23.0621676,29.1340861 15.6355385,42.0134381 C12.6739365,47.1494849 11.4862067,54.07329 11.5001224,63.3006524 C11.5051213,66.6154136 11.6352735,69.6409185 11.9460082,74.8407087 C12.3174794,81.0568561 12.3937972,82.6118547 12.3937972,85.0488281 C12.3937972,91.6159685 13.9191543,101.001448 16.9860757,113.275768 C19.7023367,148.700712 21.6314249,169.364151 22.7654977,175.207472 C23.9082459,181.095493 27.2569469,189.307448 32.8121575,199.826172 Z M64.2454205,114.705963 C62.8916057,109.699987 62.2141097,104.906565 62.2141097,100.326172 C62.2141097,98.7000511 62.6880429,96.9746323 64.0802489,92.9723933 L64.9498048,90.4726404 L65.052119,93.1173377 C65.2934157,99.3545633 65.5703327,106.57036 65.8828701,114.764732 L65.9095019,115.462987 L65.2400172,115.262839 C65.0211717,115.197413 64.7975978,115.126278 64.5687952,115.049381 L64.3152497,114.964169 L64.2454205,114.705963 Z"></path>
        </g>
        <g id="marketnail" opacity="0.807744565">
            <use fill="#DBC9D5" xlink:href="#path-3"></use>
            <use fill="url(#radialGradient-2)" xlink:href="#path-3"></use>
        </g>
        <g id="hangnail">
            <use fill="#974355" xlink:href="#path-5"></use>
            <use fill="url(#radialGradient-4)" xlink:href="#path-5"></use>
        </g>
        <g id="stayedhomenail" opacity="0.807744565">
            <use fill="#DBC9D5" xlink:href="#path-7"></use>
            <use fill="url(#radialGradient-6)" xlink:href="#path-7"></use>
        </g>
        <g id="roastbeefnail" opacity="0.807744565">
            <use fill="#DBC9D5" xlink:href="#path-9"></use>
            <use fill="url(#radialGradient-8)" xlink:href="#path-9"></use>
        </g>
        <g id="hadnonenail" opacity="0.807744565">
            <use fill="#DBC9D5" xlink:href="#path-11"></use>
            <use fill="url(#radialGradient-10)" xlink:href="#path-11"></use>
        </g>
        <path d="M149.226772,65.1642379 C148.089988,64.7713888 146.73982,64.1446213 145.17627,63.2839355 C145.954096,62.5409806 146.657442,61.9088973 147.286307,61.3876854 C141.976248,56.8713937 136.788725,57.4694319 138.402344,55.5678711 C139.357755,54.4419707 146.928671,56.3537969 152.70675,55.5678711 C156.957047,54.9897519 163.2205,47.3885932 166.261879,53.9553169 C170.52791,63.1662217 161.214676,61.6811219 156.988051,63.2839355 C154.104973,64.3772515 152.818386,72.0700453 151.197754,72.7529297 C151.197754,68.4011577 150.165463,66.5161471 149.226772,65.1642379 Z" id="Combined-Shape" fill="#6F0F05"></path>
        <g id="weeweeweenail" opacity="0.807744565" transform="translate(166.971622, 95.377660) rotate(-16.000000) translate(-166.971622, -95.377660) ">
            <use fill="#DBC9D5" xlink:href="#path-13"></use>
            <use fill="url(#radialGradient-12)" xlink:href="#path-13"></use>
        </g>
        <path d="M67.305828,22.5565792 C67.1063572,22.0601662 67,21.5383634 67,21 C67,17.6862915 71.0294373,15 76,15 C80.288403,15 83.8762746,16.9995543 84.780302,19.6764543 C82.8926586,18.6383108 80.3267791,18 77.5,18 C72.5718326,18 68.436642,19.9400787 67.305828,22.5565792 Z" id="Combined-Shape" fill="#CCC3B6"></path>
        <path d="M19.1563899,31.3878128 C18.7608922,30.3575455 18.550435,29.2768605 18.550435,28.162942 C18.550435,21.0936972 27.0266715,15.362942 37.4826392,15.362942 C47.9386068,15.362942 56.4148433,21.0936972 56.4148433,28.162942 C56.4148433,28.7274602 56.3607912,29.283443 56.2559951,29.8286537 C53.3820357,25.102946 46.3332201,21.762942 38.0933554,21.762942 C28.9734699,21.762942 21.3126279,25.8544707 19.1563899,31.3878128 Z" id="Combined-Shape-Copy-2" fill="#CCC3B6" transform="translate(37.482639, 23.375377) rotate(-21.000000) translate(-37.482639, -23.375377) "></path>
        <path d="M105.521219,37.0440219 C105.959158,34.0207893 109.573487,31.6622883 113.967339,31.6622883 C118.361191,31.6622883 121.975521,34.0207893 122.41346,37.0440219 C120.892575,35.0422057 117.682004,33.6622883 113.967339,33.6622883 C110.252675,33.6622883 107.042104,35.0422057 105.521219,37.0440219 Z" id="Combined-Shape-Copy" fill="#CCC3B6" transform="translate(113.967339, 34.353155) rotate(20.000000) translate(-113.967339, -34.353155) "></path>
        <path d="M162.665904,79.6623825 C162.884654,76.6391498 164.690013,74.2806489 166.884743,74.2806489 C169.079473,74.2806489 170.884831,76.6391498 171.103582,79.6623825 C170.3439,77.6605662 168.740219,76.2806489 166.884743,76.2806489 C165.029267,76.2806489 163.425586,77.6605662 162.665904,79.6623825 Z" id="Combined-Shape-Copy-4" fill="#CCC3B6" transform="translate(166.884743, 76.971516) rotate(7.000000) translate(-166.884743, -76.971516) "></path>
        <path d="M134.665516,54.3254541 C135.103455,51.3022215 138.717784,48.9437205 143.111637,48.9437205 C147.505489,48.9437205 151.119818,51.3022215 151.557757,54.3254541 C150.036872,52.3236379 146.826301,50.9437205 143.111637,50.9437205 C139.396972,50.9437205 136.186401,52.3236379 134.665516,54.3254541 Z" id="Combined-Shape-Copy-3" fill="#CCC3B6" transform="translate(143.111637, 51.634587) rotate(52.000000) translate(-143.111637, -51.634587) "></path>
        <g id="wrinkles" transform="translate(21.000000, 70.000000)" stroke="#060605" stroke-linecap="round">
            <path d="M0.135591679,25.7451853 C19.9576685,18.3422915 8.61370281,20.7893241 34.6275068,21.0155422" id="Path-59"></path>
            <path d="M56.235258,5.58053595 C58.2970317,5.52324505 60.3588053,5.46595415 62.420579,5.40866325" id="Path-60"></path>
            <path d="M88.5557084,0.654916072 C90.353385,0.654916072 92.1510616,0.654916072 93.9487382,0.654916072" id="Path-61"></path>
            <path d="M89.7493852,26.0826427 C90.927342,26.0567919 92.1052988,26.0309411 93.2832555,26.0050904" id="Path-62"></path>
            <path d="M117.399929,37.7752258 C118.094406,37.6742681 118.788884,37.5733104 119.483361,37.4723526" id="Path-63"></path>
        </g>
        <path d="M132,66.046875 C134.024902,66.918457 136.738019,66.477198 139.074219,66.046875 C141.102555,65.6732598 143.166686,64.1280046 145.36499,63.1767578 C142.509104,64.1867035 140.281605,64.8633799 138.682495,65.2067871 C137.311607,65.5011838 135.084109,65.781213 132,66.046875 Z" id="Path-64" fill="#6F0F05"></path>
    </g>
</svg>